<svg width="152" height="135" viewBox="0 0 152 135" fill="none" xmlns="http://www.w3.org/2000/svg">
<path fill-rule="evenodd" clip-rule="evenodd" d="M5.24034 82.0342C7.05969 101.415 16.7376 118.576 31.1215 130.361L28.0068 134.272C12.4792 121.575 2.05474 103.016 0.219238 82.0342H5.24034Z" fill="#FFD630"/>
<rect x="11.061" y="115.062" width="5.32234" height="1" transform="rotate(-35 11.061 115.062)" fill="#1A1C48"/>
<rect x="3.43848" y="82.0342" width="5" height="1" fill="#FFD630"/>
<path fill-rule="evenodd" clip-rule="evenodd" d="M75.9385 0C75.8549 0 75.7715 0.00013566 75.688 0.000406742L75.6912 1.0004C75.7736 1.00013 75.856 1 75.9385 1C76.0209 1 76.1034 1.00013 76.1858 1.0004L76.189 0.000406921C76.1055 0.00013572 76.022 0 75.9385 0ZM72.6974 0.0683216C72.5321 0.0753056 72.3668 0.0828215 72.2018 0.0908675L72.2505 1.08968C72.4134 1.08174 72.5764 1.07432 72.7396 1.06743L72.6974 0.0683216ZM79.6752 0.0908696C79.5102 0.0828235 79.3449 0.0753075 79.1796 0.0683234L79.1374 1.06743C79.3006 1.07433 79.4636 1.08174 79.6265 1.08968L79.6752 0.0908696ZM69.216 0.295231C69.0509 0.309797 68.886 0.324895 68.7212 0.340522L68.8156 1.33605C68.9782 1.32063 69.141 1.30573 69.3039 1.29136L69.216 0.295231ZM83.1558 0.340526C82.991 0.324899 82.8261 0.309801 82.661 0.295234L82.5731 1.29136C82.736 1.30574 82.8988 1.32064 83.0614 1.33606L83.1558 0.340526ZM65.7491 0.681776C65.5847 0.703956 65.4204 0.726666 65.2564 0.749903L65.3966 1.74002C65.5585 1.71709 65.7206 1.69468 65.8828 1.6728L65.7491 0.681776ZM86.6206 0.749908C86.4565 0.726671 86.2923 0.703962 86.1279 0.681781L85.9942 1.6728C86.1564 1.69469 86.3185 1.7171 86.4804 1.74003L86.6206 0.749908ZM62.304 1.22801C62.1406 1.2578 61.9775 1.28812 61.8145 1.31896L62.0005 2.30152C62.1613 2.27109 62.3223 2.24117 62.4834 2.21178L62.304 1.22801ZM90.0625 1.31896C89.8995 1.28812 89.7363 1.25781 89.573 1.22802L89.3936 2.21178C89.5547 2.24118 89.7157 2.27109 89.8765 2.30152L90.0625 1.31896ZM58.888 1.93338C58.7262 1.97075 58.5645 2.00863 58.403 2.04704L58.6344 3.0199C58.7937 2.98201 58.9532 2.94463 59.1129 2.90776L58.888 1.93338ZM93.474 2.04705C93.3125 2.00864 93.1508 1.97076 92.989 1.93339L92.764 2.90776C92.9237 2.94463 93.0833 2.98201 93.2426 3.01991L93.474 2.04705ZM55.5086 2.79677C55.3486 2.84165 55.1888 2.88703 55.0292 2.93293L55.3056 3.89397C55.4631 3.84869 55.6207 3.8039 55.7786 3.75963L55.5086 2.79677ZM96.8478 2.93294C96.6882 2.88704 96.5284 2.84165 96.3684 2.79678L96.0984 3.75964C96.2562 3.80391 96.4139 3.8487 96.5714 3.89398L96.8478 2.93294ZM52.173 3.8165C52.0152 3.86879 51.8577 3.92158 51.7003 3.97488L52.0212 4.92201C52.1764 4.86943 52.3319 4.81733 52.4876 4.76574L52.173 3.8165ZM100.177 3.9749C100.019 3.92159 99.8617 3.8688 99.7039 3.81651L99.3894 4.76575C99.5451 4.81734 99.7006 4.86944 99.8558 4.92202L100.177 3.9749ZM48.8885 4.99038C48.7333 5.04997 48.5784 5.11005 48.4236 5.17063L48.7882 6.10181C48.9409 6.04203 49.0938 5.98275 49.2469 5.92396L48.8885 4.99038ZM103.453 5.17064C103.299 5.11006 103.144 5.04998 102.988 4.99039L102.63 5.92397C102.783 5.98276 102.936 6.04204 103.089 6.10181L103.453 5.17064ZM45.6622 6.31577C45.5099 6.38252 45.3579 6.44975 45.2061 6.51746L45.6136 7.43068C45.7633 7.36387 45.9133 7.29754 46.0636 7.23168L45.6622 6.31577ZM106.671 6.51747C106.519 6.44976 106.367 6.38253 106.215 6.31578L105.813 7.23169C105.964 7.29755 106.114 7.36388 106.263 7.43069L106.671 6.51747ZM42.5009 7.78961C42.3518 7.86334 42.2031 7.93756 42.0546 8.01225L42.504 8.90558C42.6505 8.83188 42.7973 8.75866 42.9443 8.6859L42.5009 7.78961ZM109.822 8.01226C109.674 7.93757 109.525 7.86335 109.376 7.78962L108.933 8.68591C109.08 8.75867 109.226 8.83189 109.373 8.90559L109.822 8.01226ZM39.4113 9.40843C39.2658 9.48899 39.1207 9.57001 38.9758 9.6515L39.4661 10.5231C39.609 10.4427 39.7523 10.3627 39.8958 10.2832L39.4113 9.40843ZM112.901 9.65151C112.756 9.57003 112.611 9.489 112.466 9.40845L111.981 10.2832C112.125 10.3627 112.268 10.4427 112.411 10.5231L112.901 9.65151ZM36.3999 11.1685C36.2583 11.2557 36.1171 11.3433 35.9762 11.4314L36.5062 12.2794C36.6453 12.1925 36.7846 12.106 36.9243 12.02L36.3999 11.1685ZM115.901 11.4314C115.76 11.3433 115.619 11.2557 115.477 11.1685L114.953 12.02C115.092 12.106 115.232 12.1925 115.371 12.2794L115.901 11.4314ZM33.473 13.0658C33.3356 13.1594 33.1986 13.2534 33.0619 13.3479L33.6304 14.1705C33.7653 14.0773 33.9006 13.9845 34.0361 13.8921L33.473 13.0658ZM118.815 13.3479C118.678 13.2534 118.541 13.1594 118.404 13.0658L117.841 13.8921C117.976 13.9845 118.112 14.0773 118.247 14.1706L118.815 13.3479ZM30.6366 15.0959C30.5037 15.1957 30.3712 15.296 30.239 15.3967L30.8448 16.1922C30.9753 16.0929 31.1061 15.994 31.2372 15.8955L30.6366 15.0959ZM121.638 15.3967C121.506 15.296 121.373 15.1957 121.24 15.0959L120.64 15.8955C120.771 15.994 120.902 16.0929 121.032 16.1922L121.638 15.3967ZM27.8966 17.2544C27.7685 17.3602 27.6407 17.4665 27.5133 17.5731L28.1551 18.34C28.2808 18.2348 28.4069 18.1299 28.5334 18.0255L27.8966 17.2544ZM124.364 17.5731C124.236 17.4665 124.108 17.3602 123.98 17.2544L123.344 18.0255C123.47 18.1299 123.596 18.2348 123.722 18.34L124.364 17.5731ZM126.986 19.8725C126.864 19.7601 126.741 19.6482 126.618 19.5366L125.947 20.2777C126.068 20.3878 126.189 20.4982 126.31 20.6091L126.986 19.8725ZM25.2587 19.5367C25.1356 19.6482 25.0129 19.7601 24.8905 19.8725L25.5668 20.6091C25.6876 20.4982 25.8087 20.3878 25.9302 20.2777L25.2587 19.5367ZM22.7284 21.9375C22.6105 22.0546 22.4931 22.1721 22.376 22.2899L23.0854 22.9947C23.201 22.8784 23.3169 22.7625 23.4332 22.647L22.7284 21.9375ZM129.501 22.2899C129.384 22.1721 129.266 22.0546 129.149 21.9375L128.444 22.647C128.56 22.7625 128.676 22.8784 128.792 22.9947L129.501 22.2899ZM131.902 24.8202C131.79 24.6971 131.678 24.5744 131.566 24.452L130.829 25.1283C130.94 25.2491 131.051 25.3702 131.161 25.4917L131.902 24.8202ZM20.311 24.452C20.1986 24.5744 20.0867 24.6971 19.9751 24.8202L20.7162 25.4917C20.8262 25.3702 20.9367 25.2491 21.0476 25.1284L20.311 24.452ZM18.0116 27.0748C17.9049 27.2022 17.7987 27.33 17.6929 27.4582L18.464 28.0949C18.5684 27.9684 18.6732 27.8423 18.7785 27.7166L18.0116 27.0748ZM134.184 27.4582C134.078 27.33 133.972 27.2022 133.865 27.0748L133.098 27.7166C133.204 27.8423 133.309 27.9684 133.413 28.0949L134.184 27.4582ZM15.8351 29.8005C15.7345 29.9327 15.6342 30.0652 15.5344 30.1981L16.3339 30.7987C16.4325 30.6676 16.5314 30.5368 16.6307 30.4063L15.8351 29.8005ZM136.343 30.1981C136.243 30.0652 136.142 29.9327 136.042 29.8005L135.246 30.4063C135.346 30.5368 135.445 30.6676 135.543 30.7987L136.343 30.1981ZM13.7864 32.6234C13.6919 32.7601 13.5979 32.8971 13.5042 33.0345L14.3306 33.5976C14.423 33.4621 14.5158 33.3268 14.609 33.1919L13.7864 32.6234ZM138.373 33.0345C138.279 32.8971 138.185 32.7601 138.091 32.6234L137.268 33.192C137.361 33.3269 137.454 33.4621 137.546 33.5976L138.373 33.0345ZM11.8699 35.5377C11.7818 35.6786 11.6942 35.8198 11.607 35.9614L12.4584 36.4858C12.5445 36.3461 12.631 36.2068 12.7179 36.0677L11.8699 35.5377ZM140.27 35.9614C140.183 35.8199 140.095 35.6786 140.007 35.5377L139.159 36.0677C139.246 36.2068 139.332 36.3461 139.419 36.4858L140.27 35.9614ZM10.09 38.5373C10.0085 38.6822 9.92748 38.8273 9.84692 38.9728L10.7217 39.4573C10.8012 39.3138 10.8811 39.1705 10.9616 39.0276L10.09 38.5373ZM142.03 38.9728C141.949 38.8274 141.868 38.6822 141.787 38.5373L140.915 39.0276C140.996 39.1706 141.076 39.3138 141.155 39.4573L142.03 38.9728ZM8.45073 41.6161C8.37604 41.7646 8.30183 41.9133 8.22809 42.0624L9.12439 42.5058C9.19714 42.3588 9.27037 42.212 9.34407 42.0655L8.45073 41.6161ZM143.649 42.0624C143.575 41.9134 143.501 41.7646 143.426 41.6161L142.533 42.0655C142.607 42.212 142.68 42.3588 142.753 42.5059L143.649 42.0624ZM6.95595 44.7676C6.88823 44.9194 6.821 45.0714 6.75426 45.2237L7.67017 45.6251C7.73602 45.4748 7.80236 45.3248 7.86917 45.1751L6.95595 44.7676ZM145.123 45.2237C145.056 45.0714 144.989 44.9194 144.921 44.7676L144.008 45.1751C144.075 45.3248 144.141 45.4748 144.207 45.6251L145.123 45.2237ZM5.60912 47.9851C5.54854 48.1399 5.48846 48.2948 5.42887 48.4501L6.36245 48.8084C6.42124 48.6553 6.48052 48.5024 6.54029 48.3497L5.60912 47.9851ZM146.448 48.4501C146.389 48.2949 146.328 48.1399 146.268 47.9852L145.337 48.3497C145.396 48.5024 145.456 48.6553 145.515 48.8084L146.448 48.4501ZM4.41337 51.2618C4.36007 51.4192 4.30728 51.5767 4.25499 51.7345L5.20423 52.0491C5.25582 51.8934 5.30791 51.7379 5.3605 51.5827L4.41337 51.2618ZM147.622 51.7346C147.57 51.5768 147.517 51.4192 147.464 51.2619L146.516 51.5827C146.569 51.7379 146.621 51.8934 146.673 52.0491L147.622 51.7346ZM3.37142 54.5907C3.32552 54.7503 3.28013 54.9101 3.23526 55.0701L4.19811 55.3401C4.24239 55.1822 4.28717 55.0246 4.33246 54.8671L3.37142 54.5907ZM148.642 55.0701C148.597 54.9101 148.551 54.7503 148.506 54.5907L147.544 54.8671C147.59 55.0246 147.635 55.1823 147.679 55.3401L148.642 55.0701ZM2.48552 57.9645C2.44712 58.126 2.40923 58.2876 2.37187 58.4495L3.34624 58.6744C3.38311 58.5147 3.42049 58.3552 3.45838 58.1959L2.48552 57.9645ZM149.505 58.4495C149.468 58.2877 149.43 58.126 149.391 57.9645L148.419 58.1959C148.456 58.3553 148.494 58.5148 148.531 58.6745L149.505 58.4495ZM1.75744 61.376C1.7266 61.539 1.69628 61.7021 1.66649 61.8655L2.65026 62.0449C2.67966 61.8837 2.70957 61.7228 2.74 61.562L1.75744 61.376ZM150.21 61.8655C150.181 61.7022 150.15 61.539 150.12 61.3761L149.137 61.562C149.167 61.7228 149.197 61.8838 149.227 62.0449L150.21 61.8655ZM1.18838 64.8179C1.16515 64.9819 1.14244 65.1462 1.12026 65.3106L2.11128 65.4443C2.13317 65.282 2.15557 65.12 2.1785 64.9581L1.18838 64.8179ZM150.757 65.3106C150.735 65.1462 150.712 64.982 150.689 64.8179L149.698 64.9581C149.721 65.12 149.744 65.2821 149.766 65.4443L150.757 65.3106ZM0.779003 68.2827C0.763375 68.4475 0.748277 68.6124 0.733711 68.7775L1.72984 68.8654C1.74421 68.7025 1.75911 68.5397 1.77454 68.3771L0.779003 68.2827ZM151.122 68.5413C151.114 68.455 151.106 68.3689 151.098 68.2827L150.102 68.3772L150.118 68.5407C150.128 68.6489 150.138 68.7571 150.147 68.8654L151.143 68.7775C151.136 68.6987 151.129 68.62 151.122 68.5413ZM0.529346 71.7633C0.5213 71.9283 0.513784 72.0935 0.5068 72.2589L1.50591 72.3011C1.5128 72.1379 1.52022 71.9748 1.52816 71.8119L0.529346 71.7633ZM151.37 72.2589C151.363 72.0936 151.356 71.9284 151.348 71.7633L150.349 71.812C150.357 71.9749 150.364 72.1379 150.371 72.3011L151.37 72.2589ZM0.438883 75.2495C0.438612 75.3329 0.438477 75.4165 0.438477 75.5C0.438477 75.5835 0.438612 75.667 0.438883 75.7505L1.43888 75.7472C1.43861 75.6649 1.43848 75.5824 1.43848 75.5C1.43848 75.4175 1.43861 75.3351 1.43888 75.2527L0.438883 75.2495ZM151.438 75.5L151.438 75.3898L151.438 75.2495L150.438 75.2528L150.438 75.3502L150.438 75.5L150.438 75.5906L150.438 75.7473L151.438 75.7505C151.438 75.7054 151.438 75.6603 151.438 75.6152C151.438 75.5768 151.438 75.5384 151.438 75.5ZM0.506798 78.7411C0.513782 78.9064 0.521298 79.0716 0.529344 79.2367L1.52816 79.188C1.52022 79.0251 1.5128 78.8621 1.50591 78.6989L0.506798 78.7411ZM151.348 79.2367C151.356 79.0717 151.363 78.9065 151.37 78.7411L150.371 78.6989C150.368 78.7816 150.364 78.8642 150.36 78.9468C150.357 79.0272 150.353 79.1077 150.349 79.1881L151.348 79.2367ZM0.733707 82.2225C0.748274 82.3876 0.763371 82.5525 0.778998 82.7173L1.77453 82.6228C1.75911 82.4602 1.74421 82.2975 1.72984 82.1346L0.733707 82.2225ZM151.098 82.7173C151.114 82.5525 151.129 82.3876 151.143 82.2225L150.147 82.1346C150.133 82.2975 150.118 82.4603 150.102 82.6229L151.098 82.7173ZM1.12025 85.6894C1.14243 85.8538 1.16514 86.018 1.18838 86.1821L2.1785 86.0419C2.15557 85.88 2.13316 85.7179 2.11127 85.5557L1.12025 85.6894ZM150.689 86.1821C150.712 86.0181 150.735 85.8538 150.757 85.6894L149.766 85.5557C149.744 85.7179 149.721 85.88 149.698 86.0419L150.689 86.1821ZM1.66649 89.1345C1.69628 89.2978 1.72659 89.461 1.75743 89.6239L2.73999 89.438C2.70956 89.2772 2.67965 89.1162 2.65025 88.9551L1.66649 89.1345ZM150.12 89.624C150.15 89.461 150.181 89.2979 150.21 89.1345L149.227 88.9551C149.197 89.1163 149.167 89.2772 149.137 89.438L150.12 89.624ZM2.37186 92.5505C2.40922 92.7123 2.44711 92.874 2.48552 93.0355L3.45838 92.8041C3.42048 92.6447 3.3831 92.4852 3.34623 92.3255L2.37186 92.5505ZM149.457 92.7585C149.473 92.6892 149.489 92.6199 149.505 92.5505L148.531 92.3256C148.494 92.4853 148.456 92.6448 148.419 92.8041L149.391 93.0355C149.413 92.9432 149.435 92.8509 149.457 92.7585ZM3.23525 95.9299C3.28012 96.0899 3.32551 96.2497 3.37141 96.4093L4.33245 96.1329C4.28716 95.9754 4.24238 95.8177 4.1981 95.6599L3.23525 95.9299ZM148.583 96.1387C148.603 96.0692 148.622 95.9996 148.642 95.9299L147.679 95.6599C147.654 95.7471 147.63 95.8342 147.605 95.9212C147.585 95.9918 147.565 96.0624 147.544 96.1329L148.506 96.4093C148.531 96.3192 148.557 96.229 148.583 96.1387ZM4.25498 99.2654C4.30727 99.4232 4.36006 99.5808 4.41336 99.7381L5.36049 99.4173C5.3079 99.2621 5.25581 99.1066 5.20422 98.9509L4.25498 99.2654ZM147.464 99.7382C147.517 99.5808 147.57 99.4233 147.622 99.2655L146.673 98.9509C146.653 99.0117 146.632 99.0725 146.612 99.1332C146.58 99.228 146.549 99.3227 146.516 99.4173L147.464 99.7382ZM5.42886 102.55C5.48845 102.705 5.54853 102.86 5.60911 103.015L6.54028 102.65C6.48051 102.498 6.42123 102.345 6.36244 102.192L5.42886 102.55ZM146.268 103.015C146.328 102.86 146.388 102.705 146.448 102.55L145.515 102.192C145.456 102.345 145.396 102.498 145.337 102.65L146.268 103.015ZM6.75425 105.776C6.82099 105.929 6.88822 106.081 6.95594 106.232L7.86916 105.825C7.80235 105.675 7.73601 105.525 7.67016 105.375L6.75425 105.776ZM144.921 106.232C144.989 106.081 145.056 105.929 145.123 105.776L144.207 105.375L144.129 105.551C144.089 105.642 144.048 105.734 144.008 105.825L144.921 106.232ZM8.22808 108.938C8.30182 109.087 8.37603 109.235 8.45072 109.384L9.34406 108.934C9.27036 108.788 9.19713 108.641 9.12438 108.494L8.22808 108.938ZM143.533 109.17C143.572 109.093 143.61 109.015 143.649 108.938L142.753 108.494C142.68 108.641 142.607 108.788 142.533 108.934L143.426 109.384C143.462 109.313 143.498 109.242 143.533 109.17ZM9.84691 112.027C9.92747 112.173 10.0085 112.318 10.09 112.463L10.9615 111.972C10.8811 111.829 10.8012 111.686 10.7217 111.543L9.84691 112.027ZM141.787 112.463C141.85 112.35 141.913 112.238 141.975 112.126L142.03 112.027L141.155 111.543C141.076 111.686 140.996 111.829 140.915 111.972L141.787 112.463ZM11.607 115.039C11.6942 115.18 11.7818 115.321 11.8699 115.462L12.7179 114.932C12.6309 114.793 12.5445 114.654 12.4584 114.514L11.607 115.039ZM140.007 115.462C140.095 115.321 140.183 115.18 140.27 115.039L139.419 114.514C139.332 114.654 139.246 114.793 139.159 114.932L140.007 115.462ZM13.5042 117.965C13.5978 118.103 13.6919 118.24 13.7864 118.377L14.609 117.808C14.5158 117.673 14.423 117.538 14.3306 117.402L13.5042 117.965ZM138.229 118.176C138.277 118.106 138.325 118.036 138.373 117.966L137.546 117.402C137.454 117.538 137.361 117.673 137.268 117.808L138.091 118.377C138.137 118.31 138.183 118.243 138.229 118.176ZM15.5344 120.802C15.6342 120.935 15.7345 121.067 15.8351 121.2L16.6307 120.594C16.5314 120.463 16.4324 120.332 16.3339 120.201L15.5344 120.802ZM136.042 121.2C136.142 121.067 136.243 120.935 136.343 120.802L135.543 120.201C135.445 120.332 135.346 120.463 135.246 120.594L136.042 121.2ZM17.6929 123.542C17.7987 123.67 17.9049 123.798 18.0116 123.925L18.7785 123.283C18.6732 123.158 18.5684 123.032 18.464 122.905L17.6929 123.542ZM133.865 123.925C133.972 123.798 134.078 123.67 134.184 123.542L133.413 122.905C133.309 123.032 133.204 123.158 133.098 123.283L133.865 123.925ZM131.566 126.548C131.678 126.426 131.79 126.303 131.902 126.18L131.161 125.508C131.051 125.63 130.94 125.751 130.829 125.872L131.566 126.548ZM19.9751 126.18C20.0867 126.303 20.1986 126.426 20.311 126.548L21.0476 125.872C20.9367 125.751 20.8262 125.63 20.7162 125.508L19.9751 126.18ZM22.376 128.71C22.4931 128.828 22.6105 128.945 22.7284 129.062L23.4332 128.353C23.3169 128.238 23.201 128.122 23.0854 128.005L22.376 128.71ZM129.149 129.062C129.266 128.945 129.384 128.828 129.501 128.71L128.792 128.005C128.676 128.122 128.56 128.238 128.444 128.353L129.149 129.062ZM24.8905 131.128C25.0129 131.24 25.1356 131.352 25.2587 131.463L25.9302 130.722C25.8087 130.612 25.6876 130.502 25.5668 130.391L24.8905 131.128ZM126.697 131.392C126.732 131.36 126.767 131.328 126.802 131.297C126.863 131.24 126.925 131.184 126.986 131.128L126.31 130.391C126.189 130.502 126.068 130.612 125.947 130.722L126.618 131.463C126.644 131.44 126.671 131.416 126.697 131.392ZM27.5133 133.427C27.6407 133.534 27.7685 133.64 27.8966 133.746L28.5334 132.974C28.4069 132.87 28.2808 132.765 28.1551 132.66L27.5133 133.427ZM123.98 133.746C124.108 133.64 124.236 133.534 124.364 133.427L123.722 132.66C123.596 132.765 123.47 132.87 123.344 132.974L123.98 133.746Z" fill="#9499C3"/>
<rect x="0.438477" y="75.0342" width="5" height="1" fill="#9499C3"/>
<rect x="146.438" y="75.0342" width="5" height="1" fill="#9499C3"/>
<rect width="5" height="1" transform="matrix(-0.819152 -0.573576 -0.573576 0.819152 140.293 115.032)" fill="#9499C3"/>
</svg>
