<svg width="153" height="135" viewBox="0 0 153 135" fill="none" xmlns="http://www.w3.org/2000/svg">
<path fill-rule="evenodd" clip-rule="evenodd" d="M6.90304 65.0288C6.4058 68.4066 6.14844 71.8604 6.14844 75.3725C6.14844 97.4614 16.3288 117.242 32.3407 130.361L29.226 134.272C12.0738 120.247 1.14844 99.0684 1.14844 75.3725C1.14844 71.6011 1.42519 67.8935 1.95976 64.2683L6.90304 65.0288Z" fill="#298BFE"/>
<rect x="12.2803" y="115.062" width="5.32234" height="1" transform="rotate(-35 12.2803 115.062)" fill="#1A1C48"/>
<rect x="4.6123" y="64.7212" width="5" height="1.02038" transform="rotate(7.8066 4.6123 64.7212)" fill="#298BFE"/>
<rect x="0.438477" y="75.0342" width="6" height="1" fill="#1A1C48"/>
<path fill-rule="evenodd" clip-rule="evenodd" d="M77.1577 0C77.0742 0 76.9907 0.00013566 76.9072 0.000406742L76.9105 1.0004C76.9929 1.00013 77.0753 1 77.1577 1C77.2402 1 77.3226 1.00013 77.405 1.0004L77.4082 0.000406921C77.3248 0.00013572 77.2413 0 77.1577 0ZM73.9166 0.0683216C73.7513 0.0753056 73.5861 0.0828215 73.421 0.0908675L73.4697 1.08968C73.6326 1.08174 73.7957 1.07432 73.9588 1.06743L73.9166 0.0683216ZM80.8945 0.0908696C80.7294 0.0828235 80.5642 0.0753075 80.3988 0.0683234L80.3566 1.06743C80.5198 1.07433 80.6829 1.08174 80.8458 1.08968L80.8945 0.0908696ZM70.4352 0.295231C70.2701 0.309797 70.1052 0.324895 69.9405 0.340522L70.0349 1.33605C70.1975 1.32063 70.3602 1.30573 70.5231 1.29136L70.4352 0.295231ZM84.375 0.340526C84.2103 0.324899 84.0453 0.309801 83.8802 0.295234L83.7924 1.29136C83.9553 1.30574 84.118 1.32064 84.2806 1.33606L84.375 0.340526ZM66.9683 0.681776C66.8039 0.703956 66.6397 0.726666 66.4756 0.749903L66.6159 1.74002C66.7777 1.71709 66.9398 1.69468 67.102 1.6728L66.9683 0.681776ZM87.8398 0.749908C87.6758 0.726671 87.5116 0.703962 87.3471 0.681781L87.2134 1.6728C87.3757 1.69469 87.5377 1.7171 87.6996 1.74003L87.8398 0.749908ZM63.5232 1.22801C63.3599 1.2578 63.1967 1.28812 63.0338 1.31896L63.2197 2.30152C63.3805 2.27109 63.5415 2.24117 63.7026 2.21178L63.5232 1.22801ZM91.2817 1.31896C91.1187 1.28812 90.9556 1.25781 90.7923 1.22802L90.6128 2.21178C90.774 2.24118 90.935 2.27109 91.0957 2.30152L91.2817 1.31896ZM60.1073 1.93338C59.9454 1.97075 59.7837 2.00863 59.6223 2.04704L59.8537 3.0199C60.013 2.98201 60.1725 2.94463 60.3322 2.90776L60.1073 1.93338ZM94.6932 2.04705C94.5317 2.00864 94.3701 1.97076 94.2082 1.93339L93.9833 2.90776C94.143 2.94463 94.3025 2.98201 94.4618 3.01991L94.6932 2.04705ZM56.7278 2.79677C56.5678 2.84165 56.408 2.88703 56.2484 2.93293L56.5248 3.89397C56.6823 3.84869 56.84 3.8039 56.9979 3.75963L56.7278 2.79677ZM98.067 2.93294C97.9074 2.88704 97.7476 2.84165 97.5876 2.79678L97.3176 3.75964C97.4755 3.80391 97.6332 3.8487 97.7906 3.89398L98.067 2.93294ZM53.3923 3.8165C53.2345 3.86879 53.0769 3.92158 52.9196 3.97488L53.2404 4.92201C53.3957 4.86943 53.5511 4.81733 53.7068 4.76574L53.3923 3.8165ZM101.396 3.9749C101.239 3.92159 101.081 3.8688 100.923 3.81651L100.609 4.76575C100.764 4.81734 100.92 4.86944 101.075 4.92202L101.396 3.9749ZM50.1078 4.99038C49.9526 5.04997 49.7976 5.11005 49.6429 5.17063L50.0074 6.10181C50.1601 6.04203 50.313 5.98275 50.4662 5.92396L50.1078 4.99038ZM104.673 5.17064C104.518 5.11006 104.363 5.04998 104.208 4.99039L103.849 5.92397C104.002 5.98276 104.155 6.04204 104.308 6.10181L104.673 5.17064ZM46.8814 6.31577C46.7291 6.38252 46.5771 6.44975 46.4253 6.51746L46.8328 7.43068C46.9825 7.36387 47.1326 7.29754 47.2828 7.23168L46.8814 6.31577ZM107.89 6.51747C107.738 6.44976 107.586 6.38253 107.434 6.31578L107.033 7.23169C107.183 7.29755 107.333 7.36388 107.483 7.43069L107.89 6.51747ZM43.7201 7.78961C43.5711 7.86334 43.4223 7.93756 43.2739 8.01225L43.7233 8.90558C43.8697 8.83188 44.0165 8.75866 44.1636 8.6859L43.7201 7.78961ZM111.042 8.01226C110.893 7.93757 110.744 7.86335 110.595 7.78962L110.152 8.68591C110.299 8.75867 110.446 8.83189 110.592 8.90559L111.042 8.01226ZM40.6305 9.40843C40.4851 9.48899 40.3399 9.57001 40.1951 9.6515L40.6853 10.5231C40.8283 10.4427 40.9715 10.3627 41.115 10.2832L40.6305 9.40843ZM114.12 9.65151C113.976 9.57003 113.83 9.489 113.685 9.40845L113.2 10.2832C113.344 10.3627 113.487 10.4427 113.63 10.5231L114.12 9.65151ZM37.6191 11.1685C37.4776 11.2557 37.3363 11.3433 37.1954 11.4314L37.7254 12.2794C37.8645 12.1925 38.0039 12.106 38.1435 12.02L37.6191 11.1685ZM117.12 11.4314C116.979 11.3433 116.838 11.2557 116.696 11.1685L116.172 12.02C116.312 12.106 116.451 12.1925 116.59 12.2794L117.12 11.4314ZM34.6922 13.0658C34.5548 13.1594 34.4178 13.2534 34.2811 13.3479L34.8497 14.1705C34.9846 14.0773 35.1198 13.9845 35.2554 13.8921L34.6922 13.0658ZM120.034 13.3479C119.898 13.2534 119.761 13.1594 119.623 13.0658L119.06 13.8921C119.196 13.9845 119.331 14.0773 119.466 14.1706L120.034 13.3479ZM31.8558 15.0959C31.723 15.1957 31.5904 15.296 31.4582 15.3967L32.064 16.1922C32.1945 16.0929 32.3253 15.994 32.4564 15.8955L31.8558 15.0959ZM122.857 15.3967C122.725 15.296 122.592 15.1957 122.46 15.0959L121.859 15.8955C121.99 15.994 122.121 16.0929 122.251 16.1922L122.857 15.3967ZM29.1159 17.2544C28.9877 17.3602 28.86 17.4665 28.7325 17.5731L29.3743 18.34C29.5001 18.2348 29.6262 18.1299 29.7526 18.0255L29.1159 17.2544ZM125.583 17.5731C125.455 17.4665 125.328 17.3602 125.2 17.2544L124.563 18.0255C124.689 18.1299 124.815 18.2348 124.941 18.34L125.583 17.5731ZM128.206 19.8725C128.083 19.7601 127.961 19.6482 127.837 19.5366L127.166 20.2777C127.287 20.3878 127.409 20.4982 127.529 20.6091L128.206 19.8725ZM26.4779 19.5367C26.3548 19.6482 26.2321 19.7601 26.1097 19.8725L26.7861 20.6091C26.9068 20.4982 27.0279 20.3878 27.1494 20.2777L26.4779 19.5367ZM23.9476 21.9375C23.8298 22.0546 23.7123 22.1721 23.5953 22.2899L24.3047 22.9947C24.4202 22.8784 24.5361 22.7625 24.6524 22.647L23.9476 21.9375ZM130.72 22.2899C130.603 22.1721 130.486 22.0546 130.368 21.9375L129.663 22.647C129.779 22.7625 129.895 22.8784 130.011 22.9947L130.72 22.2899ZM133.121 24.8202C133.01 24.6971 132.898 24.5744 132.785 24.452L132.049 25.1283C132.159 25.2491 132.27 25.3702 132.38 25.4917L133.121 24.8202ZM21.5302 24.452C21.4179 24.5744 21.3059 24.6971 21.1944 24.8202L21.9354 25.4917C22.0455 25.3702 22.1559 25.2491 22.2668 25.1284L21.5302 24.452ZM19.2308 27.0748C19.1242 27.2022 19.018 27.33 18.9122 27.4582L19.6832 28.0949C19.7877 27.9684 19.8925 27.8423 19.9977 27.7166L19.2308 27.0748ZM135.403 27.4582C135.297 27.33 135.191 27.2022 135.085 27.0748L134.318 27.7166C134.423 27.8423 134.528 27.9684 134.632 28.0949L135.403 27.4582ZM17.0544 29.8005C16.9537 29.9327 16.8535 30.0652 16.7536 30.1981L17.5532 30.7987C17.6517 30.6676 17.7506 30.5368 17.85 30.4063L17.0544 29.8005ZM137.562 30.1981C137.462 30.0652 137.362 29.9327 137.261 29.8005L136.465 30.4063C136.565 30.5368 136.664 30.6676 136.762 30.7987L137.562 30.1981ZM15.0056 32.6234C14.9111 32.7601 14.8171 32.8971 14.7235 33.0345L15.5498 33.5976C15.6422 33.4621 15.735 33.3268 15.8283 33.1919L15.0056 32.6234ZM139.592 33.0345C139.498 32.8971 139.404 32.7601 139.31 32.6234L138.487 33.192C138.58 33.3269 138.673 33.4621 138.766 33.5976L139.592 33.0345ZM13.0891 35.5377C13.0011 35.6786 12.9134 35.8198 12.8262 35.9614L13.6777 36.4858C13.7637 36.3461 13.8502 36.2068 13.9371 36.0677L13.0891 35.5377ZM141.489 35.9614C141.402 35.8199 141.314 35.6786 141.226 35.5377L140.378 36.0677C140.465 36.2068 140.552 36.3461 140.638 36.4858L141.489 35.9614ZM11.3092 38.5373C11.2277 38.6822 11.1467 38.8273 11.0662 38.9728L11.941 39.4573C12.0204 39.3138 12.1004 39.1705 12.1808 39.0276L11.3092 38.5373ZM143.249 38.9728C143.169 38.8274 143.088 38.6822 143.006 38.5373L142.135 39.0276C142.215 39.1706 142.295 39.3138 142.374 39.4573L143.249 38.9728ZM9.66997 41.6161C9.59528 41.7646 9.52107 41.9133 9.44733 42.0624L10.3436 42.5058C10.4164 42.3588 10.4896 42.212 10.5633 42.0655L9.66997 41.6161ZM144.868 42.0624C144.794 41.9134 144.72 41.7646 144.645 41.6161L143.752 42.0655C143.826 42.212 143.899 42.3588 143.972 42.5059L144.868 42.0624ZM8.17519 44.7676C8.10747 44.9194 8.04024 45.0714 7.9735 45.2237L8.88941 45.6251C8.95526 45.4748 9.0216 45.3248 9.08841 45.1751L8.17519 44.7676ZM146.342 45.2237C146.275 45.0714 146.208 44.9194 146.14 44.7676L145.227 45.1751C145.294 45.3248 145.36 45.4748 145.426 45.6251L146.342 45.2237ZM6.82836 47.9851C6.76778 48.1399 6.70769 48.2948 6.64811 48.4501L7.58169 48.8084C7.64048 48.6553 7.69976 48.5024 7.75953 48.3497L6.82836 47.9851ZM147.667 48.4501C147.608 48.2949 147.548 48.1399 147.487 47.9852L146.556 48.3497C146.616 48.5024 146.675 48.6553 146.734 48.8084L147.667 48.4501ZM5.63261 51.2618C5.57931 51.4192 5.52651 51.5767 5.47422 51.7345L6.42347 52.0491C6.47506 51.8934 6.52715 51.7379 6.57974 51.5827L5.63261 51.2618ZM148.841 51.7346C148.789 51.5768 148.736 51.4192 148.683 51.2619L147.736 51.5827C147.788 51.7379 147.84 51.8934 147.892 52.0491L148.841 51.7346ZM4.59066 54.5907C4.54476 54.7503 4.49937 54.9101 4.45449 55.0701L5.41735 55.3401C5.46163 55.1822 5.50641 55.0246 5.5517 54.8671L4.59066 54.5907ZM149.861 55.0701C149.816 54.9101 149.771 54.7503 149.725 54.5907L148.764 54.8671C148.809 55.0246 148.854 55.1823 148.898 55.3401L149.861 55.0701ZM3.70476 57.9645C3.66636 58.126 3.62847 58.2876 3.5911 58.4495L4.56548 58.6744C4.60235 58.5147 4.63973 58.3552 4.67762 58.1959L3.70476 57.9645ZM150.724 58.4495C150.687 58.2877 150.649 58.126 150.611 57.9645L149.638 58.1959C149.676 58.3553 149.713 58.5148 149.75 58.6745L150.724 58.4495ZM2.97668 61.376C2.94584 61.539 2.91552 61.7021 2.88573 61.8655L3.8695 62.0449C3.89889 61.8837 3.92881 61.7228 3.95924 61.562L2.97668 61.376ZM151.43 61.8655C151.4 61.7022 151.37 61.539 151.339 61.3761L150.356 61.562C150.387 61.7228 150.417 61.8838 150.446 62.0449L151.43 61.8655ZM2.40762 64.8179C2.38439 64.9819 2.36168 65.1462 2.3395 65.3106L3.33052 65.4443C3.3524 65.282 3.37481 65.12 3.39774 64.9581L2.40762 64.8179ZM151.976 65.3106C151.954 65.1462 151.931 64.982 151.908 64.8179L150.918 64.9581C150.941 65.12 150.963 65.2821 150.985 65.4443L151.976 65.3106ZM1.99824 68.2827C1.98261 68.4475 1.96752 68.6124 1.95295 68.7775L2.94908 68.8654C2.96345 68.7025 2.97835 68.5397 2.99377 68.3771L1.99824 68.2827ZM152.341 68.5413C152.333 68.455 152.325 68.3689 152.317 68.2827L151.322 68.3772L151.337 68.5407C151.347 68.6489 151.357 68.7571 151.366 68.8654L152.362 68.7775C152.356 68.6987 152.348 68.62 152.341 68.5413ZM1.74858 71.7633C1.74054 71.9283 1.73302 72.0935 1.72604 72.2589L2.72515 72.3011C2.73204 72.1379 2.73946 71.9748 2.7474 71.8119L1.74858 71.7633ZM152.589 72.2589C152.582 72.0936 152.575 71.9284 152.567 71.7633L151.568 71.812C151.576 71.9749 151.583 72.1379 151.59 72.3011L152.589 72.2589ZM1.65812 75.2495C1.65785 75.3329 1.65771 75.4165 1.65771 75.5C1.65771 75.5835 1.65785 75.667 1.65812 75.7505L2.65812 75.7472C2.65785 75.6649 2.65771 75.5824 2.65771 75.5C2.65771 75.4175 2.65785 75.3351 2.65812 75.2527L1.65812 75.2495ZM152.658 75.5L152.658 75.3898L152.657 75.2495L151.657 75.2528L151.658 75.3502L151.658 75.5L151.658 75.5906L151.657 75.7473L152.657 75.7505C152.657 75.7054 152.658 75.6603 152.658 75.6152C152.658 75.5768 152.658 75.5384 152.658 75.5ZM1.72604 78.7411C1.73302 78.9064 1.74054 79.0716 1.74858 79.2367L2.7474 79.188C2.73946 79.0251 2.73204 78.8621 2.72515 78.6989L1.72604 78.7411ZM152.567 79.2367C152.575 79.0717 152.582 78.9065 152.589 78.7411L151.59 78.6989C151.587 78.7816 151.583 78.8642 151.579 78.9468C151.576 79.0272 151.572 79.1077 151.568 79.1881L152.567 79.2367ZM1.95295 82.2225C1.96751 82.3876 1.98261 82.5525 1.99824 82.7173L2.99377 82.6228C2.97835 82.4602 2.96345 82.2975 2.94907 82.1346L1.95295 82.2225ZM152.317 82.7173C152.333 82.5525 152.348 82.3876 152.362 82.2225L151.366 82.1346C151.352 82.2975 151.337 82.4603 151.322 82.6229L152.317 82.7173ZM2.33949 85.6894C2.36167 85.8538 2.38438 86.018 2.40762 86.1821L3.39774 86.0419C3.37481 85.88 3.3524 85.7179 3.33051 85.5557L2.33949 85.6894ZM151.908 86.1821C151.931 86.0181 151.954 85.8538 151.976 85.6894L150.985 85.5557C150.963 85.7179 150.941 85.88 150.918 86.0419L151.908 86.1821ZM2.88572 89.1345C2.91551 89.2978 2.94583 89.461 2.97667 89.6239L3.95923 89.438C3.9288 89.2772 3.89889 89.1162 3.86949 88.9551L2.88572 89.1345ZM151.339 89.624C151.37 89.461 151.4 89.2979 151.43 89.1345L150.446 88.9551C150.417 89.1163 150.387 89.2772 150.356 89.438L151.339 89.624ZM3.5911 92.5505C3.62846 92.7123 3.66635 92.874 3.70475 93.0355L4.67761 92.8041C4.63972 92.6447 4.60234 92.4852 4.56547 92.3255L3.5911 92.5505ZM150.676 92.7585C150.692 92.6892 150.708 92.6199 150.724 92.5505L149.75 92.3256C149.713 92.4853 149.676 92.6448 149.638 92.8041L150.611 93.0355C150.633 92.9432 150.654 92.8509 150.676 92.7585ZM4.45449 95.9299C4.49936 96.0899 4.54475 96.2497 4.59065 96.4093L5.55169 96.1329C5.5064 95.9754 5.46162 95.8177 5.41734 95.6599L4.45449 95.9299ZM149.802 96.1387C149.822 96.0692 149.841 95.9996 149.861 95.9299L148.898 95.6599C148.874 95.7471 148.849 95.8342 148.824 95.9212C148.804 95.9918 148.784 96.0624 148.764 96.1329L149.725 96.4093C149.751 96.3192 149.776 96.229 149.802 96.1387ZM5.47421 99.2654C5.5265 99.4232 5.5793 99.5808 5.6326 99.7381L6.57973 99.4173C6.52714 99.2621 6.47505 99.1066 6.42346 98.9509L5.47421 99.2654ZM148.683 99.7382C148.736 99.5808 148.789 99.4233 148.841 99.2655L147.892 98.9509C147.872 99.0117 147.852 99.0725 147.831 99.1332C147.8 99.228 147.768 99.3227 147.736 99.4173L148.683 99.7382ZM6.6481 102.55C6.70768 102.705 6.76777 102.86 6.82835 103.015L7.75952 102.65C7.69975 102.498 7.64047 102.345 7.58168 102.192L6.6481 102.55ZM147.487 103.015C147.548 102.86 147.608 102.705 147.667 102.55L146.734 102.192C146.675 102.345 146.616 102.498 146.556 102.65L147.487 103.015ZM7.97349 105.776C8.04023 105.929 8.10746 106.081 8.17518 106.232L9.0884 105.825C9.02159 105.675 8.95525 105.525 8.8894 105.375L7.97349 105.776ZM146.14 106.232C146.208 106.081 146.275 105.929 146.342 105.776L145.426 105.375L145.349 105.551C145.308 105.642 145.268 105.734 145.227 105.825L146.14 106.232ZM9.44732 108.938C9.52106 109.087 9.59527 109.235 9.66996 109.384L10.5633 108.934C10.4896 108.788 10.4164 108.641 10.3436 108.494L9.44732 108.938ZM144.752 109.17C144.791 109.093 144.83 109.015 144.868 108.938L143.972 108.494C143.899 108.641 143.826 108.788 143.752 108.934L144.645 109.384C144.681 109.313 144.717 109.242 144.752 109.17ZM11.0661 112.027C11.1467 112.173 11.2277 112.318 11.3092 112.463L12.1808 111.972C12.1004 111.829 12.0204 111.686 11.9409 111.543L11.0661 112.027ZM143.006 112.463C143.069 112.35 143.132 112.238 143.195 112.126L143.249 112.027L142.374 111.543C142.295 111.686 142.215 111.829 142.135 111.972L143.006 112.463ZM12.8262 115.039C12.9134 115.18 13.001 115.321 13.0891 115.462L13.9371 114.932C13.8502 114.793 13.7637 114.654 13.6777 114.514L12.8262 115.039ZM141.226 115.462C141.314 115.321 141.402 115.18 141.489 115.039L140.638 114.514C140.552 114.654 140.465 114.793 140.378 114.932L141.226 115.462ZM14.7235 117.965C14.8171 118.103 14.9111 118.24 15.0056 118.377L15.8283 117.808C15.735 117.673 15.6422 117.538 15.5498 117.402L14.7235 117.965ZM139.448 118.176C139.496 118.106 139.544 118.036 139.592 117.966L138.766 117.402C138.673 117.538 138.58 117.673 138.487 117.808L139.31 118.377C139.356 118.31 139.402 118.243 139.448 118.176ZM16.7536 120.802C16.8534 120.935 16.9537 121.067 17.0544 121.2L17.85 120.594C17.7506 120.463 17.6517 120.332 17.5532 120.201L16.7536 120.802ZM137.261 121.2C137.362 121.067 137.462 120.935 137.562 120.802L136.762 120.201C136.664 120.332 136.565 120.463 136.465 120.594L137.261 121.2ZM18.9122 123.542C19.018 123.67 19.1242 123.798 19.2308 123.925L19.9977 123.283C19.8925 123.158 19.7877 123.032 19.6832 122.905L18.9122 123.542ZM135.085 123.925C135.191 123.798 135.297 123.67 135.403 123.542L134.632 122.905C134.528 123.032 134.423 123.158 134.318 123.283L135.085 123.925ZM132.785 126.548C132.898 126.426 133.01 126.303 133.121 126.18L132.38 125.508C132.27 125.63 132.159 125.751 132.049 125.872L132.785 126.548ZM21.1944 126.18C21.3059 126.303 21.4179 126.426 21.5302 126.548L22.2668 125.872C22.1559 125.751 22.0455 125.63 21.9354 125.508L21.1944 126.18ZM23.5953 128.71C23.7123 128.828 23.8298 128.945 23.9476 129.062L24.6524 128.353C24.5361 128.238 24.4202 128.122 24.3047 128.005L23.5953 128.71ZM130.368 129.062C130.486 128.945 130.603 128.828 130.72 128.71L130.011 128.005C129.895 128.122 129.779 128.238 129.663 128.353L130.368 129.062ZM26.1097 131.128C26.2321 131.24 26.3548 131.352 26.4779 131.463L27.1494 130.722C27.0279 130.612 26.9068 130.502 26.7861 130.391L26.1097 131.128ZM127.916 131.392C127.951 131.36 127.986 131.328 128.021 131.297C128.083 131.24 128.144 131.184 128.206 131.128L127.529 130.391C127.409 130.502 127.287 130.612 127.166 130.722L127.837 131.463C127.864 131.44 127.89 131.416 127.916 131.392ZM28.7325 133.427C28.86 133.534 28.9877 133.64 29.1159 133.746L29.7526 132.974C29.6262 132.87 29.5001 132.765 29.3743 132.66L28.7325 133.427ZM125.2 133.746C125.328 133.64 125.455 133.534 125.583 133.427L124.941 132.66C124.815 132.765 124.689 132.87 124.563 132.974L125.2 133.746Z" fill="#9499C3"/>
<rect x="147.658" y="75.0342" width="5" height="1" fill="#9499C3"/>
<rect width="5" height="1" transform="matrix(-0.819152 -0.573576 -0.573576 0.819152 141.512 115.032)" fill="#9499C3"/>
</svg>
