<svg width="120" height="106" viewBox="0 0 120 106" fill="none" xmlns="http://www.w3.org/2000/svg">
<path fill-rule="evenodd" clip-rule="evenodd" d="M61 0.00592025C60.7166 0.00197775 60.4328 0 60.1484 0C27.0113 0 0.148438 26.8629 0.148438 60C0.148438 78.2369 8.28477 94.5735 21.1255 105.578L24.1258 101.563C12.5006 91.4784 5.14844 76.5978 5.14844 60C5.14844 29.6243 29.7728 5 60.1484 5C60.4328 5 60.7167 5.00216 61 5.00646V0.00592025Z" fill="#298BFE"/>
<rect width="6" height="1" transform="matrix(-1 0 0 1 6 60.0913)" fill="#1A1C48"/>
<rect x="6.88818" y="88.1174" width="5.27058" height="1" transform="rotate(-29.212 6.88818 88.1174)" fill="#1A1C48"/>
<rect x="60" y="10.0914" width="7" height="1" transform="rotate(-90 60 10.0914)" fill="#298BFE"/>
<path fill-rule="evenodd" clip-rule="evenodd" d="M60 1.09129C59.9139 1.09129 59.8279 1.09148 59.7419 1.09184L59.7461 2.09183C59.8307 2.09147 59.9153 2.09129 60 2.09129C60.0847 2.09129 60.1693 2.09147 60.2539 2.09183L60.2581 1.09184C60.1721 1.09148 60.0861 1.09129 60 1.09129ZM56.6624 1.18334C56.4908 1.19283 56.3193 1.20305 56.1481 1.21399L56.2119 2.21196C56.3803 2.2012 56.5489 2.19115 56.7176 2.18181L56.6624 1.18334ZM63.8519 1.21399C63.6807 1.20305 63.5092 1.19283 63.3376 1.18334L63.2824 2.18181C63.4512 2.19115 63.6197 2.2012 63.7881 2.21196L63.8519 1.21399ZM53.0795 1.4895C52.9091 1.50924 52.7389 1.5297 52.569 1.55087L52.6926 2.5432C52.8597 2.52238 53.0271 2.50226 53.1946 2.48286L53.0795 1.4895ZM67.431 1.55087C67.2611 1.5297 67.0909 1.50924 66.9205 1.4895L66.8054 2.48286C66.973 2.50226 67.1403 2.52238 67.3074 2.5432L67.431 1.55087ZM70.9824 2.10287C70.8143 2.0715 70.646 2.04084 70.4774 2.01089L70.3025 2.99547C70.4682 3.02492 70.6337 3.05506 70.799 3.0859L70.9824 2.10287ZM49.5226 2.01089C49.354 2.04084 49.1857 2.0715 49.0176 2.10287L49.201 3.0859C49.3663 3.05506 49.5318 3.02492 49.6975 2.99547L49.5226 2.01089ZM74.4931 2.869C74.3275 2.82753 74.1615 2.78676 73.9953 2.74669L73.7609 3.71884C73.9243 3.75823 74.0875 3.79831 74.2503 3.83907L74.4931 2.869ZM46.0047 2.7467C45.8385 2.78677 45.6725 2.82754 45.5068 2.869L45.7496 3.83908C45.9125 3.79832 46.0756 3.75824 46.239 3.71884L46.0047 2.7467ZM77.9518 3.84743C77.7886 3.79586 77.6252 3.74497 77.4614 3.69477L77.1683 4.65086C77.3293 4.70021 77.49 4.75024 77.6504 4.80094L77.9518 3.84743ZM42.5386 3.69478C42.3748 3.74498 42.2113 3.79587 42.0482 3.84744L42.3496 4.80094C42.51 4.75024 42.6707 4.70022 42.8317 4.65087L42.5386 3.69478ZM81.3457 5.03498C81.1858 4.9735 81.0255 4.91268 80.8649 4.85254L80.5142 5.78902C80.6721 5.84815 80.8296 5.90793 80.9869 5.96838L81.3457 5.03498ZM39.135 4.85255C38.9745 4.91269 38.8142 4.97351 38.6543 5.03499L39.0131 5.96839C39.1703 5.90794 39.3279 5.84816 39.4858 5.78903L39.135 4.85255ZM84.6602 6.42639C84.5045 6.35537 84.3484 6.28501 84.192 6.2153L83.785 7.12873C83.9388 7.19726 84.0922 7.26644 84.2453 7.33625L84.6602 6.42639ZM35.808 6.21531C35.6516 6.28502 35.4955 6.35538 35.3397 6.4264L35.7546 7.33626C35.9077 7.26645 36.0612 7.19727 36.215 7.12874L35.808 6.21531ZM87.8837 8.01612C87.7326 7.93585 87.5812 7.85622 87.4294 7.77722L86.9678 8.66429C87.117 8.74195 87.2659 8.82025 87.4144 8.89916L87.8837 8.01612ZM32.5706 7.77723C32.4188 7.85623 32.2673 7.93587 32.1163 8.01613L32.5856 8.89917C32.7341 8.82026 32.883 8.74197 33.0322 8.6643L32.5706 7.77723ZM91.005 9.79811C90.859 9.70882 90.7127 9.62015 90.5659 9.53209L90.0514 10.3896C90.1957 10.4762 90.3397 10.5634 90.4832 10.6512L91.005 9.79811ZM29.4341 9.53211C29.2873 9.62016 29.1409 9.70884 28.995 9.79812L29.5168 10.6512C29.6603 10.5634 29.8042 10.4762 29.9485 10.3896L29.4341 9.53211ZM94.0136 11.7657C93.8732 11.6677 93.7323 11.5703 93.591 11.4735L93.0258 12.2984C93.1647 12.3936 93.3032 12.4894 93.4413 12.5857L94.0136 11.7657ZM26.4089 11.4735C26.2676 11.5703 26.1268 11.6677 25.9863 11.7657L26.5587 12.5858C26.6967 12.4894 26.8352 12.3936 26.9742 12.2984L26.4089 11.4735ZM96.8979 13.9107C96.7637 13.8045 96.629 13.6988 96.4938 13.5937L95.88 14.3831C96.0129 14.4864 96.1453 14.5903 96.2773 14.6948L96.8979 13.9107ZM23.5061 13.5937C23.371 13.6988 23.2363 13.8045 23.1021 13.9107L23.7227 14.6948C23.8547 14.5904 23.9871 14.4865 24.12 14.3831L23.5061 13.5937ZM99.6479 16.225C99.5203 16.111 99.3922 15.9974 99.2636 15.8844L98.6035 16.6355C98.7299 16.7466 98.8558 16.8583 98.9813 16.9705L99.6479 16.225ZM20.7363 15.8844C20.6078 15.9974 20.4797 16.111 20.3521 16.2251L21.0187 16.9705C21.1441 16.8583 21.2701 16.7466 21.3965 16.6355L20.7363 15.8844ZM102.254 18.7004C102.133 18.5788 102.012 18.4578 101.891 18.3373L101.187 19.0474C101.306 19.1659 101.425 19.2849 101.544 19.4045L102.254 18.7004ZM18.1091 18.3373C17.9875 18.4578 17.8665 18.5788 17.746 18.7004L18.4561 19.4045C18.5746 19.2849 18.6936 19.1659 18.8132 19.0474L18.1091 18.3373ZM104.707 21.3276C104.594 21.1991 104.48 21.071 104.366 20.9434L103.621 21.61C103.733 21.7354 103.845 21.8614 103.956 21.9878L104.707 21.3276ZM15.6338 20.9434C15.5197 21.071 15.4061 21.1991 15.2931 21.3276L16.0442 21.9878C16.1553 21.8614 16.267 21.7355 16.3792 21.61L15.6338 20.9434ZM106.998 24.0974C106.892 23.9623 106.787 23.8276 106.681 23.6934L105.896 24.314C106.001 24.446 106.105 24.5784 106.208 24.7113L106.998 24.0974ZM13.3194 23.6934C13.2132 23.8276 13.1075 23.9623 13.0024 24.0975L13.7918 24.7113C13.8952 24.5784 13.9991 24.446 14.1035 24.314L13.3194 23.6934ZM109.118 27.0002C109.021 26.8589 108.924 26.7181 108.826 26.5776L108.006 27.15C108.102 27.288 108.198 27.4265 108.293 27.5655L109.118 27.0002ZM11.1744 26.5777C11.0764 26.7181 10.979 26.8589 10.8822 27.0003L11.7071 27.5655C11.8023 27.4266 11.8981 27.288 11.9945 27.15L11.1744 26.5777ZM111.059 30.0254C110.971 29.8786 110.882 29.7322 110.793 29.5863L109.94 30.1081C110.028 30.2516 110.115 30.3955 110.202 30.5398L111.059 30.0254ZM9.20681 29.5863C9.11753 29.7323 9.02886 29.8786 8.9408 30.0254L9.79832 30.5399C9.8849 30.3955 9.97208 30.2516 10.0599 30.1081L9.20681 29.5863ZM112.814 33.1619C112.735 33.0101 112.655 32.8586 112.575 32.7076L111.692 33.1769C111.771 33.3254 111.849 33.4743 111.927 33.6235L112.814 33.1619ZM7.42482 32.7076C7.34456 32.8587 7.26492 33.0101 7.18593 33.1619L8.07299 33.6235C8.15066 33.4743 8.22895 33.3254 8.30787 33.1769L7.42482 32.7076ZM114.376 36.3993C114.306 36.2429 114.236 36.0868 114.165 35.931L113.255 36.3459C113.325 36.499 113.394 36.6525 113.463 36.8063L114.376 36.3993ZM5.8351 35.931C5.76408 36.0868 5.69372 36.2429 5.62401 36.3993L6.53744 36.8063C6.60597 36.6525 6.67514 36.4991 6.74496 36.346L5.8351 35.931ZM115.739 39.7263C115.679 39.5658 115.618 39.4055 115.556 39.2456L114.623 39.6044C114.683 39.7616 114.743 39.9192 114.802 40.0771L115.739 39.7263ZM4.44369 39.2456C4.38221 39.4055 4.32139 39.5658 4.26125 39.7264L5.19773 40.0771C5.25685 39.9192 5.31664 39.7617 5.37709 39.6044L4.44369 39.2456ZM116.897 43.1299C116.846 42.9661 116.795 42.8026 116.744 42.6395L115.79 42.9408C115.841 43.1013 115.891 43.262 115.94 43.423L116.897 43.1299ZM3.25614 42.6395C3.20457 42.8027 3.15368 42.9661 3.10348 43.1299L4.05957 43.423C4.10892 43.262 4.15895 43.1013 4.20965 42.9409L3.25614 42.6395ZM117.845 46.596C117.805 46.4297 117.764 46.2638 117.722 46.0981L116.752 46.3409C116.793 46.5038 116.833 46.6669 116.872 46.8303L117.845 46.596ZM2.2777 46.0982C2.23624 46.2638 2.19547 46.4298 2.1554 46.596L3.12754 46.8303C3.16694 46.6669 3.20702 46.5038 3.24778 46.341L2.2777 46.0982ZM118.58 50.1139C118.55 49.9453 118.52 49.777 118.488 49.6089L117.505 49.7923C117.536 49.9576 117.566 50.1231 117.596 50.2888L118.58 50.1139ZM1.51158 49.6089C1.48021 49.777 1.44955 49.9453 1.4196 50.1139L2.40418 50.2888C2.43363 50.1231 2.46377 49.9576 2.49461 49.7923L1.51158 49.6089ZM119.102 53.6708C119.094 53.6061 119.087 53.5415 119.079 53.4769C119.066 53.3713 119.054 53.2657 119.04 53.1603L118.048 53.2839C118.069 53.451 118.089 53.6183 118.108 53.7859L119.102 53.6708ZM0.959579 53.1603C0.938403 53.3302 0.917944 53.5004 0.898206 53.6708L1.89156 53.7859C1.91097 53.6183 1.93109 53.451 1.95191 53.2839L0.959579 53.1603ZM0.6227 56.7394C0.611756 56.9106 0.601537 57.0821 0.592046 57.2537L1.59052 57.3089C1.59985 57.1401 1.6099 56.9715 1.62066 56.8032L0.6227 56.7394ZM119.408 57.2537C119.398 57.0821 119.388 56.9106 119.377 56.7394L118.379 56.8032C118.39 56.9716 118.4 57.1401 118.409 57.3089L119.408 57.2537ZM0.500548 60.3332C0.500183 60.4192 0.5 60.5052 0.5 60.5913C0.5 60.6774 0.500183 60.7634 0.500548 60.8494L1.50054 60.8451C1.50018 60.7606 1.5 60.676 1.5 60.5913C1.5 60.5066 1.50018 60.422 1.50054 60.3374L0.500548 60.3332ZM119.5 60.4845C119.5 60.4341 119.5 60.3836 119.499 60.3332L118.499 60.3374C118.5 60.422 118.5 60.5066 118.5 60.5913C118.5 60.676 118.5 60.7606 118.499 60.8452L119.499 60.8494L119.5 60.7713L119.5 60.5913C119.5 60.5557 119.5 60.5201 119.5 60.4845ZM0.592045 63.9289C0.601537 64.1005 0.611756 64.272 0.6227 64.4432L1.62066 64.3794C1.6099 64.211 1.59985 64.0424 1.59052 63.8737L0.592045 63.9289ZM119.377 64.4432C119.388 64.272 119.398 64.1005 119.408 63.9289L118.409 63.8737C118.4 64.0424 118.39 64.211 118.379 64.3794L119.377 64.4432ZM0.898205 67.5118C0.917944 67.6822 0.938403 67.8523 0.959579 68.0223L1.95191 67.8987C1.93109 67.7316 1.91097 67.5642 1.89156 67.3967L0.898205 67.5118ZM119.04 68.0223C119.062 67.8523 119.082 67.6822 119.102 67.5118L118.108 67.3967C118.1 67.4734 118.091 67.5501 118.081 67.6268C118.07 67.7175 118.059 67.8081 118.048 67.8987L119.04 68.0223ZM1.4196 71.0687C1.44955 71.2373 1.48021 71.4056 1.51158 71.5737L2.49461 71.3903C2.46377 71.225 2.43363 71.0595 2.40418 70.8938L1.4196 71.0687ZM118.488 71.5737C118.52 71.4056 118.55 71.2373 118.58 71.0687L117.596 70.8938C117.566 71.0595 117.536 71.225 117.505 71.3903L118.488 71.5737ZM117.722 75.0844C117.764 74.9188 117.805 74.7528 117.845 74.5866L116.872 74.3522C116.833 74.5156 116.793 74.6788 116.752 74.8416L117.722 75.0844ZM2.1554 74.5866C2.19547 74.7528 2.23624 74.9188 2.27771 75.0844L3.24779 74.8417C3.20702 74.6788 3.16694 74.5157 3.12755 74.3523L2.1554 74.5866ZM116.744 78.5431C116.795 78.3799 116.846 78.2165 116.897 78.0527L115.94 77.7596C115.891 77.9206 115.841 78.0813 115.79 78.2417L116.744 78.5431ZM3.10348 78.0527C3.15368 78.2165 3.20457 78.3799 3.25615 78.5431L4.20965 78.2417C4.15895 78.0813 4.10892 77.9206 4.05957 77.7596L3.10348 78.0527ZM115.556 81.937C115.618 81.7771 115.679 81.6168 115.739 81.4562L114.802 81.1055C114.743 81.2634 114.683 81.4209 114.623 81.5781L115.556 81.937ZM4.26126 81.4562C4.3214 81.6168 4.38221 81.7771 4.4437 81.937L5.37709 81.5782C5.31665 81.421 5.25686 81.2634 5.19774 81.1055L4.26126 81.4562ZM114.165 85.2515C114.236 85.0958 114.306 84.9397 114.376 84.7833L113.463 84.3763C113.394 84.5301 113.325 84.6835 113.255 84.8366L114.165 85.2515ZM5.62402 84.7833C5.69373 84.9397 5.76409 85.0958 5.83511 85.2516L6.74497 84.8367C6.67515 84.6836 6.60598 84.5301 6.53745 84.3763L5.62402 84.7833ZM112.575 88.475C112.655 88.3239 112.735 88.1725 112.814 88.0207L111.927 87.5591C111.849 87.7083 111.771 87.8572 111.692 88.0057L112.575 88.475ZM7.18594 88.0207C7.26494 88.1725 7.34457 88.3239 7.42484 88.475L8.30788 88.0057C8.22897 87.8572 8.15067 87.7083 8.07301 87.5591L7.18594 88.0207ZM110.793 91.5963C110.882 91.4503 110.971 91.3039 111.059 91.1572L110.202 90.6427C110.115 90.787 110.028 90.931 109.94 91.0745L110.793 91.5963ZM8.94081 91.1572C9.02887 91.304 9.11754 91.4503 9.20683 91.5963L10.0599 91.0745C9.9721 90.931 9.88492 90.7871 9.79834 90.6427L8.94081 91.1572ZM108.826 94.6049C108.924 94.4645 109.021 94.3236 109.118 94.1823L108.293 93.6171C108.198 93.756 108.102 93.8945 108.006 94.0326L108.826 94.6049ZM10.8822 94.1824C10.979 94.3237 11.0764 94.4645 11.1744 94.6049L11.9945 94.0326C11.8981 93.8946 11.8023 93.7561 11.7071 93.6171L10.8822 94.1824ZM106.834 97.2939C106.889 97.2245 106.943 97.1549 106.998 97.0851L106.208 96.4713C106.105 96.6042 106.001 96.7366 105.896 96.8686L106.681 97.4892C106.732 97.4242 106.783 97.3591 106.834 97.2939ZM13.0024 97.0852C13.1075 97.2203 13.2132 97.355 13.3194 97.4892L14.1035 96.8686C13.9991 96.7366 13.8952 96.6042 13.7918 96.4713L13.0024 97.0852ZM104.366 100.239C104.48 100.112 104.594 99.9835 104.707 99.8549L103.956 99.1948C103.845 99.3212 103.733 99.4471 103.621 99.5726L104.366 100.239ZM15.2931 99.855C15.4061 99.9835 15.5197 100.112 15.6338 100.239L16.3792 99.5726C16.267 99.4471 16.1553 99.3212 16.0442 99.1948L15.2931 99.855ZM101.891 102.845C102.012 102.725 102.134 102.604 102.254 102.482L101.544 101.778C101.425 101.898 101.306 102.017 101.187 102.135L101.891 102.845ZM17.746 102.482C17.8665 102.604 17.9875 102.725 18.1091 102.845L18.8132 102.135C18.6936 102.017 18.5746 101.898 18.4561 101.778L17.746 102.482ZM99.2637 105.298L99.4024 105.176C99.4429 105.14 99.4833 105.104 99.5237 105.068C99.5652 105.031 99.6066 104.994 99.6479 104.958L98.9813 104.212L98.8535 104.326C98.7704 104.4 98.687 104.474 98.6035 104.547L99.2637 105.298ZM20.3521 104.958C20.4797 105.072 20.6078 105.185 20.7364 105.298L21.3965 104.547C21.2701 104.436 21.1442 104.324 21.0187 104.212L20.3521 104.958Z" fill="#9499C3"/>
<rect x="115" y="60.0913" width="5" height="1" fill="#9499C3"/>
<rect width="5" height="1" transform="matrix(-0.872819 -0.488043 -0.488043 0.872819 112.875 87.9854)" fill="#9499C3"/>
</svg>
