<svg width="120" height="106" viewBox="0 0 120 106" fill="none" xmlns="http://www.w3.org/2000/svg">
<path fill-rule="evenodd" clip-rule="evenodd" d="M86.2352 11.5681C78.4727 7.37823 69.5883 5.00006 60.1484 5.00006C29.7728 5.00006 5.14844 29.6244 5.14844 60.0001C5.14844 76.5978 12.5006 91.4784 24.1258 101.563L21.1255 105.578C8.28477 94.5736 0.148438 78.237 0.148438 60.0001C0.148438 26.863 27.0114 6.10352e-05 60.1484 6.10352e-05C70.4697 6.10352e-05 80.1823 2.60615 88.664 7.1962L86.2352 11.5681Z" fill="#298BFE"/>
<rect width="6" height="1" transform="matrix(-1 0 0 1 6 60.0914)" fill="#1A1C48"/>
<rect x="6.88843" y="88.1175" width="5.27058" height="1" transform="rotate(-29.212 6.88843 88.1175)" fill="#1A1C48"/>
<rect x="83.0352" y="15.1805" width="7" height="1.00619" transform="rotate(-60.7187 83.0352 15.1805)" fill="#298BFE"/>
<path fill-rule="evenodd" clip-rule="evenodd" d="M60 1.09135C59.9139 1.09135 59.8279 1.09154 59.7419 1.0919L59.7461 2.09189C59.8307 2.09153 59.9153 2.09135 60 2.09135C60.0847 2.09135 60.1693 2.09153 60.2539 2.09189L60.2581 1.0919C60.1721 1.09154 60.0861 1.09135 60 1.09135ZM56.6624 1.1834C56.4908 1.19289 56.3193 1.20311 56.1481 1.21405L56.2119 2.21202C56.3803 2.20126 56.5489 2.19121 56.7176 2.18187L56.6624 1.1834ZM63.8519 1.21405C63.6807 1.20311 63.5092 1.19289 63.3376 1.1834L63.2824 2.18187C63.4512 2.19121 63.6197 2.20126 63.7881 2.21202L63.8519 1.21405ZM53.0795 1.48956C52.9091 1.5093 52.7389 1.52976 52.569 1.55093L52.6926 2.54326C52.8597 2.52244 53.0271 2.50232 53.1946 2.48292L53.0795 1.48956ZM67.431 1.55093C67.2611 1.52976 67.0909 1.5093 66.9205 1.48956L66.8054 2.48292C66.973 2.50232 67.1403 2.52244 67.3074 2.54326L67.431 1.55093ZM70.9824 2.10293C70.8143 2.07156 70.646 2.0409 70.4774 2.01095L70.3025 2.99554C70.4682 3.02498 70.6337 3.05512 70.799 3.08596L70.9824 2.10293ZM49.5226 2.01095C49.354 2.0409 49.1857 2.07157 49.0176 2.10293L49.201 3.08596C49.3663 3.05513 49.5318 3.02498 49.6975 2.99554L49.5226 2.01095ZM74.4931 2.86906C74.3275 2.82759 74.1615 2.78682 73.9953 2.74675L73.7609 3.7189C73.9243 3.75829 74.0875 3.79837 74.2503 3.83913L74.4931 2.86906ZM46.0047 2.74676C45.8385 2.78683 45.6725 2.8276 45.5068 2.86906L45.7496 3.83914C45.9125 3.79838 46.0756 3.7583 46.239 3.7189L46.0047 2.74676ZM77.9518 3.84749C77.7886 3.79592 77.6252 3.74503 77.4614 3.69483L77.1683 4.65092C77.3293 4.70027 77.49 4.7503 77.6504 4.801L77.9518 3.84749ZM42.5386 3.69484C42.3748 3.74504 42.2113 3.79593 42.0482 3.8475L42.3496 4.80101C42.51 4.75031 42.6707 4.70028 42.8317 4.65093L42.5386 3.69484ZM81.3457 5.03505C81.1858 4.97356 81.0255 4.91274 80.8649 4.8526L80.5142 5.78909C80.6721 5.84821 80.8296 5.90799 80.9869 5.96844L81.3457 5.03505ZM39.135 4.85261C38.9745 4.91275 38.8142 4.97357 38.6543 5.03505L39.0131 5.96845C39.1703 5.908 39.3279 5.84822 39.4858 5.78909L39.135 4.85261ZM84.6602 6.42645C84.5045 6.35543 84.3484 6.28507 84.192 6.21536L83.785 7.12879C83.9388 7.19732 84.0922 7.2665 84.2453 7.33631L84.6602 6.42645ZM35.808 6.21537C35.6516 6.28508 35.4955 6.35544 35.3397 6.42646L35.7546 7.33632C35.9077 7.26651 36.0612 7.19733 36.215 7.1288L35.808 6.21537ZM87.8837 8.01618C87.7326 7.93591 87.5812 7.85628 87.4294 7.77728L86.9678 8.66435C87.117 8.74201 87.2659 8.82031 87.4144 8.89922L87.8837 8.01618ZM32.5706 7.77729C32.4188 7.85629 32.2673 7.93593 32.1163 8.01619L32.5856 8.89923C32.7341 8.82032 32.883 8.74203 33.0322 8.66436L32.5706 7.77729ZM91.005 9.79817C90.859 9.70888 90.7127 9.62021 90.5659 9.53215L90.0514 10.3897C90.1957 10.4763 90.3397 10.5634 90.4832 10.6512L91.005 9.79817ZM29.4341 9.53217C29.2873 9.62023 29.1409 9.7089 28.995 9.79818L29.5168 10.6512C29.6603 10.5635 29.8042 10.4763 29.9485 10.3897L29.4341 9.53217ZM94.0136 11.7658C93.8732 11.6678 93.7323 11.5704 93.591 11.4735L93.0258 12.2985C93.1647 12.3937 93.3032 12.4894 93.4413 12.5858L94.0136 11.7658ZM26.4089 11.4736C26.2676 11.5704 26.1268 11.6678 25.9863 11.7658L26.5587 12.5858C26.6967 12.4895 26.8352 12.3937 26.9742 12.2985L26.4089 11.4736ZM96.8979 13.9108C96.7637 13.8045 96.629 13.6989 96.4938 13.5938L95.88 14.3832C96.0129 14.4865 96.1453 14.5904 96.2773 14.6949L96.8979 13.9108ZM23.5061 13.5938C23.371 13.6989 23.2363 13.8045 23.1021 13.9108L23.7227 14.6949C23.8547 14.5904 23.9871 14.4865 24.12 14.3832L23.5061 13.5938ZM99.6479 16.2251C99.5203 16.111 99.3922 15.9975 99.2636 15.8845L98.6035 16.6356C98.7299 16.7467 98.8558 16.8583 98.9813 16.9705L99.6479 16.2251ZM20.7363 15.8845C20.6078 15.9975 20.4797 16.111 20.3521 16.2251L21.0187 16.9705C21.1441 16.8584 21.2701 16.7467 21.3965 16.6356L20.7363 15.8845ZM102.254 18.7004C102.133 18.5789 102.012 18.4578 101.891 18.3373L101.187 19.0475C101.306 19.166 101.425 19.285 101.544 19.4045L102.254 18.7004ZM18.1091 18.3373C17.9875 18.4579 17.8665 18.5789 17.746 18.7005L18.4561 19.4045C18.5746 19.285 18.6936 19.166 18.8132 19.0475L18.1091 18.3373ZM104.707 21.3277C104.594 21.1991 104.48 21.071 104.366 20.9435L103.621 21.6101C103.733 21.7355 103.845 21.8614 103.956 21.9879L104.707 21.3277ZM15.6338 20.9435C15.5197 21.0711 15.4061 21.1991 15.2931 21.3277L16.0442 21.9879C16.1553 21.8615 16.267 21.7355 16.3792 21.6101L15.6338 20.9435ZM106.998 24.0975C106.892 23.9623 106.787 23.8276 106.681 23.6934L105.896 24.314C106.001 24.446 106.105 24.5785 106.208 24.7114L106.998 24.0975ZM13.3194 23.6934C13.2132 23.8277 13.1075 23.9624 13.0024 24.0975L13.7918 24.7114C13.8952 24.5785 13.9991 24.446 14.1035 24.3141L13.3194 23.6934ZM109.118 27.0003C109.021 26.859 108.924 26.7181 108.826 26.5777L108.006 27.15C108.102 27.2881 108.198 27.4266 108.293 27.5655L109.118 27.0003ZM11.1744 26.5777C11.0764 26.7181 10.979 26.859 10.8822 27.0003L11.7071 27.5655C11.8023 27.4266 11.8981 27.2881 11.9945 27.15L11.1744 26.5777ZM111.059 30.0255C110.971 29.8787 110.882 29.7323 110.793 29.5863L109.94 30.1082C110.028 30.2517 110.115 30.3956 110.202 30.5399L111.059 30.0255ZM9.20681 29.5864C9.11753 29.7323 9.02886 29.8787 8.9408 30.0255L9.79832 30.5399C9.8849 30.3956 9.97208 30.2517 10.0599 30.1082L9.20681 29.5864ZM112.814 33.1619C112.735 33.0101 112.655 32.8587 112.575 32.7077L111.692 33.177C111.771 33.3255 111.849 33.4743 111.927 33.6236L112.814 33.1619ZM7.42482 32.7077C7.34456 32.8587 7.26492 33.0101 7.18593 33.1619L8.07299 33.6236C8.15066 33.4743 8.22895 33.3255 8.30787 33.177L7.42482 32.7077ZM114.376 36.3994C114.306 36.2429 114.236 36.0868 114.165 35.9311L113.255 36.346C113.325 36.4991 113.394 36.6525 113.463 36.8064L114.376 36.3994ZM5.8351 35.9311C5.76408 36.0868 5.69372 36.2429 5.62401 36.3994L6.53744 36.8064C6.60597 36.6526 6.67514 36.4991 6.74496 36.346L5.8351 35.9311ZM115.739 39.7264C115.679 39.5658 115.618 39.4056 115.556 39.2456L114.623 39.6045C114.683 39.7617 114.743 39.9192 114.802 40.0771L115.739 39.7264ZM4.44369 39.2456C4.38221 39.4056 4.32139 39.5658 4.26125 39.7264L5.19773 40.0771C5.25685 39.9193 5.31664 39.7617 5.37709 39.6045L4.44369 39.2456ZM116.897 43.1299C116.846 42.9662 116.795 42.8027 116.744 42.6395L115.79 42.9409C115.841 43.1013 115.891 43.262 115.94 43.423L116.897 43.1299ZM3.25614 42.6396C3.20457 42.8027 3.15368 42.9662 3.10348 43.13L4.05957 43.423C4.10892 43.262 4.15895 43.1013 4.20965 42.9409L3.25614 42.6396ZM117.845 46.596C117.805 46.4298 117.764 46.2639 117.722 46.0982L116.752 46.341C116.793 46.5039 116.833 46.667 116.872 46.8304L117.845 46.596ZM2.2777 46.0982C2.23624 46.2639 2.19547 46.4298 2.1554 46.596L3.12754 46.8304C3.16694 46.667 3.20702 46.5039 3.24778 46.341L2.2777 46.0982ZM118.58 50.1139C118.55 49.9454 118.52 49.777 118.488 49.6089L117.505 49.7924C117.536 49.9576 117.566 50.1231 117.596 50.2889L118.58 50.1139ZM1.51158 49.6089C1.48021 49.777 1.44955 49.9454 1.4196 50.114L2.40418 50.2889C2.43363 50.1231 2.46377 49.9576 2.49461 49.7924L1.51158 49.6089ZM119.102 53.6709C119.094 53.6062 119.087 53.5415 119.079 53.4769C119.066 53.3713 119.054 53.2658 119.04 53.1603L118.048 53.284C118.069 53.4511 118.089 53.6184 118.108 53.7859L119.102 53.6709ZM0.959579 53.1603C0.938403 53.3303 0.917944 53.5005 0.898206 53.6709L1.89156 53.7859C1.91097 53.6184 1.93109 53.4511 1.95191 53.284L0.959579 53.1603ZM0.6227 56.7394C0.611756 56.9107 0.601537 57.0821 0.592046 57.2538L1.59052 57.309C1.59985 57.1402 1.6099 56.9716 1.62066 56.8032L0.6227 56.7394ZM119.408 57.2538C119.398 57.0821 119.388 56.9107 119.377 56.7394L118.379 56.8032C118.39 56.9716 118.4 57.1402 118.409 57.309L119.408 57.2538ZM0.500548 60.3332C0.500183 60.4192 0.5 60.5053 0.5 60.5914C0.5 60.6774 0.500183 60.7635 0.500548 60.8495L1.50054 60.8452C1.50018 60.7606 1.5 60.676 1.5 60.5914C1.5 60.5067 1.50018 60.4221 1.50054 60.3375L0.500548 60.3332ZM119.5 60.4846C119.5 60.4341 119.5 60.3837 119.499 60.3333L118.499 60.3375C118.5 60.4221 118.5 60.5067 118.5 60.5914C118.5 60.676 118.5 60.7606 118.499 60.8452L119.499 60.8495L119.5 60.7714L119.5 60.5914C119.5 60.5558 119.5 60.5202 119.5 60.4846ZM0.592045 63.9289C0.601537 64.1006 0.611756 64.272 0.6227 64.4433L1.62066 64.3795C1.6099 64.2111 1.59985 64.0425 1.59052 63.8737L0.592045 63.9289ZM119.377 64.4433C119.388 64.272 119.398 64.1006 119.408 63.9289L118.409 63.8737C118.4 64.0425 118.39 64.2111 118.379 64.3795L119.377 64.4433ZM0.898205 67.5118C0.917944 67.6822 0.938403 67.8524 0.959579 68.0224L1.95191 67.8987C1.93109 67.7316 1.91097 67.5643 1.89156 67.3968L0.898205 67.5118ZM119.04 68.0224C119.062 67.8524 119.082 67.6822 119.102 67.5118L118.108 67.3968C118.1 67.4735 118.091 67.5502 118.081 67.6268C118.07 67.7175 118.059 67.8082 118.048 67.8987L119.04 68.0224ZM1.4196 71.0688C1.44955 71.2373 1.48021 71.4057 1.51158 71.5738L2.49461 71.3903C2.46377 71.2251 2.43363 71.0596 2.40418 70.8938L1.4196 71.0688ZM118.488 71.5738C118.52 71.4057 118.55 71.2373 118.58 71.0688L117.596 70.8938C117.566 71.0596 117.536 71.2251 117.505 71.3903L118.488 71.5738ZM117.722 75.0845C117.764 74.9188 117.805 74.7529 117.845 74.5867L116.872 74.3523C116.833 74.5157 116.793 74.6788 116.752 74.8417L117.722 75.0845ZM2.1554 74.5867C2.19547 74.7529 2.23624 74.9188 2.27771 75.0845L3.24779 74.8417C3.20702 74.6788 3.16694 74.5157 3.12755 74.3523L2.1554 74.5867ZM116.744 78.5432C116.795 78.38 116.846 78.2165 116.897 78.0527L115.94 77.7597C115.891 77.9207 115.841 78.0814 115.79 78.2418L116.744 78.5432ZM3.10348 78.0528C3.15368 78.2165 3.20457 78.38 3.25615 78.5432L4.20965 78.2418C4.15895 78.0814 4.10892 77.9207 4.05957 77.7597L3.10348 78.0528ZM115.556 81.9371C115.618 81.7771 115.679 81.6169 115.739 81.4563L114.802 81.1056C114.743 81.2634 114.683 81.421 114.623 81.5782L115.556 81.9371ZM4.26126 81.4563C4.3214 81.6169 4.38221 81.7772 4.4437 81.9371L5.37709 81.5782C5.31665 81.421 5.25686 81.2635 5.19774 81.1056L4.26126 81.4563ZM114.165 85.2516C114.236 85.0959 114.306 84.9398 114.376 84.7833L113.463 84.3763C113.394 84.5301 113.325 84.6836 113.255 84.8367L114.165 85.2516ZM5.62402 84.7833C5.69373 84.9398 5.76409 85.0959 5.83511 85.2516L6.74497 84.8367C6.67515 84.6836 6.60598 84.5302 6.53745 84.3764L5.62402 84.7833ZM112.575 88.475C112.655 88.324 112.735 88.1726 112.814 88.0208L111.927 87.5591C111.849 87.7084 111.771 87.8572 111.692 88.0057L112.575 88.475ZM7.18594 88.0208C7.26494 88.1726 7.34457 88.324 7.42484 88.475L8.30788 88.0057C8.22897 87.8573 8.15067 87.7084 8.07301 87.5591L7.18594 88.0208ZM110.793 91.5963C110.882 91.4504 110.971 91.304 111.059 91.1572L110.202 90.6428C110.115 90.7871 110.028 90.931 109.94 91.0745L110.793 91.5963ZM8.94081 91.1572C9.02887 91.304 9.11754 91.4504 9.20683 91.5964L10.0599 91.0745C9.9721 90.931 9.88492 90.7871 9.79834 90.6428L8.94081 91.1572ZM108.826 94.605C108.924 94.4646 109.021 94.3237 109.118 94.1824L108.293 93.6172C108.198 93.7561 108.102 93.8946 108.006 94.0327L108.826 94.605ZM10.8822 94.1824C10.979 94.3237 11.0764 94.4646 11.1744 94.605L11.9945 94.0327C11.8981 93.8946 11.8023 93.7561 11.7071 93.6172L10.8822 94.1824ZM106.834 97.294C106.889 97.2245 106.943 97.1549 106.998 97.0852L106.208 96.4713C106.105 96.6042 106.001 96.7367 105.896 96.8686L106.681 97.4893C106.732 97.4243 106.783 97.3592 106.834 97.294ZM13.0024 97.0852C13.1075 97.2204 13.2132 97.3551 13.3194 97.4893L14.1035 96.8687C13.9991 96.7367 13.8952 96.6042 13.7918 96.4714L13.0024 97.0852ZM104.366 100.239C104.48 100.112 104.594 99.9836 104.707 99.855L103.956 99.1948C103.845 99.3212 103.733 99.4472 103.621 99.5726L104.366 100.239ZM15.2931 99.855C15.4061 99.9836 15.5197 100.112 15.6338 100.239L16.3792 99.5727C16.267 99.4472 16.1553 99.3213 16.0442 99.1948L15.2931 99.855ZM101.891 102.845C102.012 102.725 102.134 102.604 102.254 102.482L101.544 101.778C101.425 101.898 101.306 102.017 101.187 102.135L101.891 102.845ZM17.746 102.482C17.8665 102.604 17.9875 102.725 18.1091 102.845L18.8132 102.135C18.6936 102.017 18.5746 101.898 18.4561 101.778L17.746 102.482ZM99.2637 105.298L99.4024 105.176C99.4429 105.14 99.4833 105.104 99.5237 105.068C99.5652 105.031 99.6066 104.995 99.6479 104.958L98.9813 104.212L98.8535 104.326C98.7704 104.4 98.687 104.474 98.6035 104.547L99.2637 105.298ZM20.3521 104.958C20.4797 105.072 20.6078 105.185 20.7364 105.298L21.3965 104.547C21.2701 104.436 21.1442 104.324 21.0187 104.212L20.3521 104.958Z" fill="#9499C3"/>
<rect x="115" y="60.0914" width="5" height="1" fill="#9499C3"/>
<rect width="5" height="1" transform="matrix(-0.872819 -0.488043 -0.488043 0.872819 112.875 87.9854)" fill="#9499C3"/>
</svg>
