<svg width="120" height="106" viewBox="0 0 120 106" fill="none" xmlns="http://www.w3.org/2000/svg">
<path fill-rule="evenodd" clip-rule="evenodd" d="M60 0C59.9139 0 59.8279 0.000182807 59.7419 0.000548065L59.7461 1.00054C59.8307 1.00018 59.9153 1 60 1C60.0847 1 60.1693 1.00018 60.2539 1.00054L60.2581 0.000548124C60.1721 0.000182837 60.0861 0 60 0ZM56.6624 0.092045C56.4908 0.101537 56.3193 0.111756 56.1481 0.1227L56.2119 1.12066C56.3803 1.1099 56.5489 1.09985 56.7176 1.09052L56.6624 0.092045ZM63.8519 0.1227C63.6807 0.111756 63.5092 0.101537 63.3376 0.0920456L63.2824 1.09052C63.4512 1.09985 63.6197 1.1099 63.7881 1.12066L63.8519 0.1227ZM53.0795 0.398205C52.9091 0.417944 52.7389 0.438403 52.569 0.459579L52.6926 1.45191C52.8597 1.43109 53.0271 1.41097 53.1946 1.39156L53.0795 0.398205ZM67.431 0.459579C67.2611 0.438403 67.0909 0.417944 66.9205 0.398206L66.8054 1.39156C66.973 1.41097 67.1403 1.43109 67.3074 1.45191L67.431 0.459579ZM70.9824 1.01158C70.8143 0.980211 70.646 0.94955 70.4774 0.919599L70.3025 1.90418C70.4682 1.93363 70.6337 1.96377 70.799 1.99461L70.9824 1.01158ZM49.5226 0.919599C49.354 0.94955 49.1857 0.980211 49.0176 1.01158L49.201 1.99461C49.3663 1.96377 49.5318 1.93363 49.6975 1.90418L49.5226 0.919599ZM74.4931 1.7777C74.3275 1.73624 74.1615 1.69547 73.9953 1.6554L73.7609 2.62754C73.9243 2.66694 74.0875 2.70702 74.2503 2.74778L74.4931 1.7777ZM46.0047 1.6554C45.8385 1.69547 45.6725 1.73624 45.5068 1.77771L45.7496 2.74779C45.9125 2.70702 46.0756 2.66694 46.239 2.62755L46.0047 1.6554ZM77.9518 2.75614C77.7886 2.70457 77.6252 2.65368 77.4614 2.60348L77.1683 3.55957C77.3293 3.60892 77.49 3.65895 77.6504 3.70965L77.9518 2.75614ZM42.5386 2.60348C42.3748 2.65368 42.2113 2.70457 42.0482 2.75615L42.3496 3.70965C42.51 3.65895 42.6707 3.60892 42.8317 3.55957L42.5386 2.60348ZM81.3457 3.94369C81.1858 3.88221 81.0255 3.82139 80.8649 3.76125L80.5142 4.69773C80.6721 4.75685 80.8296 4.81664 80.9869 4.87709L81.3457 3.94369ZM39.135 3.76126C38.9745 3.8214 38.8142 3.88221 38.6543 3.9437L39.0131 4.87709C39.1703 4.81665 39.3279 4.75686 39.4858 4.69774L39.135 3.76126ZM84.6602 5.3351C84.5045 5.26408 84.3484 5.19372 84.192 5.12401L83.785 6.03744C83.9388 6.10597 84.0922 6.17514 84.2453 6.24496L84.6602 5.3351ZM35.808 5.12402C35.6516 5.19373 35.4955 5.26409 35.3397 5.33511L35.7546 6.24497C35.9077 6.17515 36.0612 6.10598 36.215 6.03745L35.808 5.12402ZM87.8837 6.92482C87.7326 6.84456 87.5812 6.76492 87.4294 6.68593L86.9678 7.57299C87.117 7.65066 87.2659 7.72895 87.4144 7.80787L87.8837 6.92482ZM32.5706 6.68594C32.4188 6.76494 32.2673 6.84457 32.1163 6.92484L32.5856 7.80788C32.7341 7.72897 32.883 7.65067 33.0322 7.57301L32.5706 6.68594ZM91.005 8.70681C90.859 8.61753 90.7127 8.52886 90.5659 8.4408L90.0514 9.29832C90.1957 9.3849 90.3397 9.47208 90.4832 9.55987L91.005 8.70681ZM29.4341 8.44081C29.2873 8.52887 29.1409 8.61754 28.995 8.70683L29.5168 9.55988C29.6603 9.4721 29.8042 9.38492 29.9485 9.29834L29.4341 8.44081ZM94.0136 10.6744C93.8732 10.5764 93.7323 10.479 93.591 10.3822L93.0258 11.2071C93.1647 11.3023 93.3032 11.3981 93.4413 11.4945L94.0136 10.6744ZM26.4089 10.3822C26.2676 10.479 26.1268 10.5764 25.9863 10.6744L26.5587 11.4945C26.6967 11.3981 26.8352 11.3023 26.9742 11.2071L26.4089 10.3822ZM96.8979 12.8194C96.7637 12.7132 96.629 12.6075 96.4938 12.5024L95.88 13.2918C96.0129 13.3952 96.1453 13.4991 96.2773 13.6035L96.8979 12.8194ZM23.5061 12.5024C23.371 12.6075 23.2363 12.7132 23.1021 12.8194L23.7227 13.6035C23.8547 13.4991 23.9871 13.3952 24.12 13.2918L23.5061 12.5024ZM99.6479 15.1338C99.5203 15.0197 99.3922 14.9061 99.2636 14.7931L98.6035 15.5442C98.7299 15.6553 98.8558 15.767 98.9813 15.8792L99.6479 15.1338ZM20.7363 14.7931C20.6078 14.9061 20.4797 15.0197 20.3521 15.1338L21.0187 15.8792C21.1441 15.767 21.2701 15.6553 21.3965 15.5442L20.7363 14.7931ZM102.254 17.6091C102.133 17.4875 102.012 17.3665 101.891 17.246L101.187 17.9561C101.306 18.0746 101.425 18.1936 101.544 18.3132L102.254 17.6091ZM18.1091 17.246C17.9875 17.3665 17.8665 17.4875 17.746 17.6091L18.4561 18.3132C18.5746 18.1936 18.6936 18.0746 18.8132 17.9561L18.1091 17.246ZM104.707 20.2363C104.594 20.1078 104.48 19.9797 104.366 19.8521L103.621 20.5187C103.733 20.6441 103.845 20.7701 103.956 20.8965L104.707 20.2363ZM15.6338 19.8521C15.5197 19.9797 15.4061 20.1078 15.2931 20.2364L16.0442 20.8965C16.1553 20.7701 16.267 20.6442 16.3792 20.5187L15.6338 19.8521ZM106.998 23.0061C106.892 22.871 106.787 22.7363 106.681 22.6021L105.896 23.2227C106.001 23.3547 106.105 23.4871 106.208 23.62L106.998 23.0061ZM13.3194 22.6021C13.2132 22.7363 13.1075 22.871 13.0024 23.0062L13.7918 23.62C13.8952 23.4871 13.9991 23.3547 14.1035 23.2227L13.3194 22.6021ZM109.118 25.9089C109.021 25.7676 108.924 25.6268 108.826 25.4863L108.006 26.0587C108.102 26.1967 108.198 26.3352 108.293 26.4742L109.118 25.9089ZM11.1744 25.4864C11.0764 25.6268 10.979 25.7677 10.8822 25.909L11.7071 26.4742C11.8023 26.3353 11.8981 26.1968 11.9945 26.0587L11.1744 25.4864ZM111.059 28.9341C110.971 28.7873 110.882 28.6409 110.793 28.495L109.94 29.0168C110.028 29.1603 110.115 29.3042 110.202 29.4485L111.059 28.9341ZM9.20681 28.495C9.11753 28.641 9.02886 28.7873 8.9408 28.9341L9.79832 29.4486C9.8849 29.3043 9.97208 29.1603 10.0599 29.0168L9.20681 28.495ZM112.814 32.0706C112.735 31.9188 112.655 31.7673 112.575 31.6163L111.692 32.0856C111.771 32.2341 111.849 32.383 111.927 32.5322L112.814 32.0706ZM7.42482 31.6163C7.34456 31.7674 7.26492 31.9188 7.18593 32.0706L8.07299 32.5322C8.15066 32.383 8.22895 32.2341 8.30787 32.0856L7.42482 31.6163ZM114.376 35.308C114.306 35.1516 114.236 34.9955 114.165 34.8397L113.255 35.2546C113.325 35.4077 113.394 35.5612 113.463 35.715L114.376 35.308ZM5.8351 34.8398C5.76408 34.9955 5.69372 35.1516 5.62401 35.308L6.53744 35.715C6.60597 35.5612 6.67514 35.4078 6.74496 35.2547L5.8351 34.8398ZM115.739 38.635C115.679 38.4745 115.618 38.3142 115.556 38.1543L114.623 38.5131C114.683 38.6703 114.743 38.8279 114.802 38.9858L115.739 38.635ZM4.44369 38.1543C4.38221 38.3142 4.32139 38.4745 4.26125 38.6351L5.19773 38.9858C5.25685 38.8279 5.31664 38.6704 5.37709 38.5131L4.44369 38.1543ZM116.897 42.0386C116.846 41.8748 116.795 41.7113 116.744 41.5482L115.79 41.8496C115.841 42.01 115.891 42.1707 115.94 42.3317L116.897 42.0386ZM3.25614 41.5482C3.20457 41.7114 3.15368 41.8748 3.10348 42.0386L4.05957 42.3317C4.10892 42.1707 4.15895 42.01 4.20965 41.8496L3.25614 41.5482ZM117.845 45.5047C117.805 45.3385 117.764 45.1725 117.722 45.0068L116.752 45.2496C116.793 45.4125 116.833 45.5756 116.872 45.739L117.845 45.5047ZM2.2777 45.0069C2.23624 45.1725 2.19547 45.3385 2.1554 45.5047L3.12754 45.7391C3.16694 45.5757 3.20702 45.4125 3.24778 45.2497L2.2777 45.0069ZM118.58 49.0226C118.55 48.854 118.52 48.6857 118.488 48.5176L117.505 48.701C117.536 48.8663 117.566 49.0318 117.596 49.1975L118.58 49.0226ZM1.51158 48.5176C1.48021 48.6857 1.44955 48.854 1.4196 49.0226L2.40418 49.1975C2.43363 49.0318 2.46377 48.8663 2.49461 48.701L1.51158 48.5176ZM119.102 52.5795C119.094 52.5148 119.087 52.4502 119.079 52.3856C119.066 52.28 119.054 52.1744 119.04 52.069L118.048 52.1926C118.069 52.3597 118.089 52.5271 118.108 52.6946L119.102 52.5795ZM0.959579 52.069C0.938403 52.2389 0.917944 52.4091 0.898206 52.5795L1.89156 52.6946C1.91097 52.527 1.93109 52.3597 1.95191 52.1926L0.959579 52.069ZM0.6227 55.6481C0.611756 55.8193 0.601537 55.9908 0.592046 56.1624L1.59052 56.2176C1.59985 56.0488 1.6099 55.8803 1.62066 55.7119L0.6227 55.6481ZM119.408 56.1624C119.398 55.9908 119.388 55.8193 119.377 55.6481L118.379 55.7119C118.39 55.8803 118.4 56.0489 118.409 56.2176L119.408 56.1624ZM0.500548 59.2419C0.500183 59.3279 0.5 59.4139 0.5 59.5C0.5 59.5861 0.500183 59.6721 0.500548 59.7581L1.50054 59.7539C1.50018 59.6693 1.5 59.5847 1.5 59.5C1.5 59.4153 1.50018 59.3307 1.50054 59.2461L0.500548 59.2419ZM119.5 59.3932C119.5 59.3428 119.5 59.2923 119.499 59.2419L118.499 59.2461C118.5 59.3307 118.5 59.4153 118.5 59.5C118.5 59.5847 118.5 59.6693 118.499 59.7539L119.499 59.7581L119.5 59.68L119.5 59.5C119.5 59.4644 119.5 59.4288 119.5 59.3932ZM0.592045 62.8376C0.601537 63.0092 0.611756 63.1807 0.6227 63.3519L1.62066 63.2881C1.6099 63.1197 1.59985 62.9511 1.59052 62.7824L0.592045 62.8376ZM119.377 63.3519C119.388 63.1807 119.398 63.0092 119.408 62.8376L118.409 62.7824C118.4 62.9512 118.39 63.1197 118.379 63.2881L119.377 63.3519ZM0.898205 66.4205C0.917944 66.5909 0.938403 66.7611 0.959579 66.931L1.95191 66.8074C1.93109 66.6403 1.91097 66.4729 1.89156 66.3054L0.898205 66.4205ZM119.04 66.931C119.062 66.7611 119.082 66.5909 119.102 66.4205L118.108 66.3054C118.1 66.3822 118.091 66.4588 118.081 66.5355C118.07 66.6262 118.059 66.7168 118.048 66.8074L119.04 66.931ZM1.4196 69.9774C1.44955 70.146 1.48021 70.3143 1.51158 70.4824L2.49461 70.299C2.46377 70.1337 2.43363 69.9682 2.40418 69.8025L1.4196 69.9774ZM118.488 70.4824C118.52 70.3143 118.55 70.146 118.58 69.9774L117.596 69.8025C117.566 69.9682 117.536 70.1337 117.505 70.299L118.488 70.4824ZM117.722 73.9931C117.764 73.8275 117.805 73.6615 117.845 73.4953L116.872 73.2609C116.833 73.4243 116.793 73.5875 116.752 73.7503L117.722 73.9931ZM2.1554 73.4953C2.19547 73.6615 2.23624 73.8275 2.27771 73.9932L3.24779 73.7504C3.20702 73.5875 3.16694 73.4244 3.12755 73.261L2.1554 73.4953ZM116.744 77.4518C116.795 77.2886 116.846 77.1252 116.897 76.9614L115.94 76.6683C115.891 76.8293 115.841 76.99 115.79 77.1504L116.744 77.4518ZM3.10348 76.9614C3.15368 77.1252 3.20457 77.2887 3.25615 77.4518L4.20965 77.1504C4.15895 76.99 4.10892 76.8293 4.05957 76.6683L3.10348 76.9614ZM115.556 80.8457C115.618 80.6858 115.679 80.5255 115.739 80.3649L114.802 80.0142C114.743 80.1721 114.683 80.3296 114.623 80.4869L115.556 80.8457ZM4.26126 80.365C4.3214 80.5255 4.38221 80.6858 4.4437 80.8457L5.37709 80.4869C5.31665 80.3297 5.25686 80.1721 5.19774 80.0142L4.26126 80.365ZM114.165 84.1602C114.236 84.0045 114.306 83.8484 114.376 83.692L113.463 83.285C113.394 83.4388 113.325 83.5922 113.255 83.7453L114.165 84.1602ZM5.62402 83.692C5.69373 83.8484 5.76409 84.0045 5.83511 84.1603L6.74497 83.7454C6.67515 83.5923 6.60598 83.4388 6.53745 83.285L5.62402 83.692ZM112.575 87.3837C112.655 87.2326 112.735 87.0812 112.814 86.9294L111.927 86.4678C111.849 86.617 111.771 86.7659 111.692 86.9144L112.575 87.3837ZM7.18594 86.9294C7.26494 87.0812 7.34457 87.2327 7.42484 87.3837L8.30788 86.9144C8.22897 86.7659 8.15067 86.617 8.07301 86.4678L7.18594 86.9294ZM110.793 90.505C110.882 90.359 110.971 90.2127 111.059 90.0659L110.202 89.5514C110.115 89.6957 110.028 89.8397 109.94 89.9832L110.793 90.505ZM8.94081 90.0659C9.02887 90.2127 9.11754 90.3591 9.20683 90.505L10.0599 89.9832C9.9721 89.8397 9.88492 89.6958 9.79834 89.5515L8.94081 90.0659ZM108.826 93.5136C108.924 93.3732 109.021 93.2323 109.118 93.091L108.293 92.5258C108.198 92.6647 108.102 92.8032 108.006 92.9413L108.826 93.5136ZM10.8822 93.0911C10.979 93.2324 11.0764 93.3732 11.1744 93.5137L11.9945 92.9413C11.8981 92.8033 11.8023 92.6648 11.7071 92.5258L10.8822 93.0911ZM106.834 96.2026C106.889 96.1332 106.943 96.0636 106.998 95.9938L106.208 95.38C106.105 95.5129 106.001 95.6453 105.896 95.7773L106.681 96.3979C106.732 96.3329 106.783 96.2678 106.834 96.2026ZM13.0024 95.9939C13.1075 96.129 13.2132 96.2637 13.3194 96.3979L14.1035 95.7773C13.9991 95.6453 13.8952 95.5129 13.7918 95.38L13.0024 95.9939ZM104.366 99.1479C104.48 99.0203 104.594 98.8922 104.707 98.7636L103.956 98.1035C103.845 98.2299 103.733 98.3558 103.621 98.4813L104.366 99.1479ZM15.2931 98.7637C15.4061 98.8922 15.5197 99.0203 15.6338 99.1479L16.3792 98.4813C16.267 98.3559 16.1553 98.2299 16.0442 98.1035L15.2931 98.7637ZM101.891 101.754C102.012 101.633 102.134 101.512 102.254 101.391L101.544 100.687C101.425 100.806 101.306 100.925 101.187 101.044L101.891 101.754ZM17.746 101.391C17.8665 101.512 17.9875 101.634 18.1091 101.754L18.8132 101.044C18.6936 100.925 18.5746 100.806 18.4561 100.687L17.746 101.391ZM99.2637 104.207L99.4024 104.085C99.4429 104.049 99.4833 104.013 99.5237 103.977C99.5652 103.94 99.6066 103.903 99.6479 103.866L98.9813 103.121L98.8535 103.235C98.7704 103.309 98.687 103.382 98.6035 103.456L99.2637 104.207ZM20.3521 103.866C20.4797 103.98 20.6078 104.094 20.7364 104.207L21.3965 103.456C21.2701 103.345 21.1442 103.233 21.0187 103.121L20.3521 103.866Z" fill="#9499C3"/>
<rect x="115" y="59" width="5" height="1" fill="#9499C3"/>
<rect width="5" height="1" transform="matrix(-0.872819 -0.488043 -0.488043 0.872819 112.875 86.8941)" fill="#9499C3"/>
<rect x="6.88818" y="87.0261" width="5" height="1" transform="rotate(-29.212 6.88818 87.0261)" fill="#9499C3"/>
<rect x="20" y="103.95" width="10" height="2" transform="rotate(-45 20 103.95)" fill="#298BFE"/>
<rect width="5" height="1" transform="matrix(-1 0 0 1 5 59)" fill="#9499C3"/>
</svg>
